<svg width="144" height="96" viewBox="0 0 144 96" fill="none" xmlns="http://www.w3.org/2000/svg">
<ellipse cx="47.1619" cy="48" rx="47.1619" ry="48" fill="#FFA8A8" fill-opacity="0.2"/>
<rect x="48" width="96" height="96" rx="48" fill="#FFD1D1"/>
<path d="M104.25 57.75H101.25C101.051 57.75 100.86 57.829 100.72 57.9697C100.579 58.1103 100.5 58.3011 100.5 58.5C100.5 58.6989 100.579 58.8897 100.72 59.0303C100.86 59.171 101.051 59.25 101.25 59.25H104.25V57.75Z" fill="#FF2B2B"/>
<path d="M90.75 38.25C91.9927 38.25 93 37.2427 93 36C93 34.7573 91.9927 33.75 90.75 33.75C89.5073 33.75 88.5 34.7573 88.5 36C88.5 37.2427 89.5073 38.25 90.75 38.25Z" fill="#FF2B2B"/>
<path d="M84.75 63C84.75 62.8011 84.829 62.6103 84.9698 62.4697C85.1104 62.329 85.3012 62.25 85.5 62.25H99.1613C99.2251 62.2021 99.29 62.1553 99.3568 62.1108C99.7548 61.846 100.096 61.5048 100.361 61.1068L100.653 60.6689C100.128 60.5241 99.6736 60.194 99.3737 59.7397C99.0737 59.2855 98.9486 58.7379 99.0216 58.1986C99.0945 57.6592 99.3605 57.1645 99.7703 56.8062C100.18 56.4479 100.706 56.2503 101.25 56.25H104.25C104.25 56.25 104.253 53.7656 104.254 53.6367C103.552 53.0952 102.984 52.3997 102.593 51.6037C102.202 50.8077 101.999 49.9326 102 49.0458C102.002 45.313 102.768 41.6202 104.252 38.1951C104.251 38.1812 104.25 38.1674 104.25 38.1533V31.125C104.249 30.6279 104.052 30.1513 103.7 29.7998C103.349 29.4483 102.872 29.2506 102.375 29.25H76.8382C77.1095 29.7476 77.2512 30.3056 77.25 30.8723V64.5C77.25 65.4946 77.6451 66.4484 78.3484 67.1516C79.0517 67.8549 80.0055 68.25 81 68.25C81.9946 68.25 82.9484 67.8549 83.6517 67.1516C84.3549 66.4484 84.75 65.4946 84.75 64.5V63ZM98.25 44.25H99.75C99.9489 44.25 100.14 44.329 100.28 44.4697C100.421 44.6103 100.5 44.8011 100.5 45C100.5 45.1989 100.421 45.3897 100.28 45.5303C100.14 45.671 99.9489 45.75 99.75 45.75H98.25C98.0512 45.75 97.8604 45.671 97.7198 45.5303C97.579 45.3897 97.5 45.1989 97.5 45C97.5 44.8011 97.579 44.6103 97.7198 44.4697C97.8604 44.329 98.0512 44.25 98.25 44.25ZM100.5 48C100.5 48.1989 100.421 48.3897 100.28 48.5303C100.14 48.671 99.9489 48.75 99.75 48.75H90.75C90.5512 48.75 90.3604 48.671 90.2198 48.5303C90.079 48.3897 90 48.1989 90 48C90 47.8011 90.079 47.6103 90.2198 47.4697C90.3604 47.329 90.5512 47.25 90.75 47.25H99.75C99.9489 47.25 100.14 47.329 100.28 47.4697C100.421 47.6103 100.5 47.8011 100.5 48ZM96 45C96 45.1989 95.9211 45.3897 95.7803 45.5303C95.6397 45.671 95.4489 45.75 95.25 45.75H93C92.8012 45.75 92.6104 45.671 92.4698 45.5303C92.329 45.3897 92.25 45.1989 92.25 45C92.25 44.8011 92.329 44.6103 92.4698 44.4697C92.6104 44.329 92.8012 44.25 93 44.25H95.25C95.4489 44.25 95.6397 44.329 95.7803 44.4697C95.9211 44.6103 96 44.8011 96 45ZM90.75 32.25C91.4918 32.25 92.2167 32.4699 92.8334 32.882C93.4501 33.294 93.9308 33.8798 94.2146 34.565C94.4984 35.2502 94.5727 36.0041 94.428 36.7316C94.2833 37.459 93.9262 38.1272 93.4017 38.6516C92.8773 39.1761 92.209 39.5333 91.4816 39.6779C90.7542 39.8227 90.0002 39.7484 89.315 39.4645C88.6298 39.1808 88.0441 38.7001 87.6321 38.0834C87.2199 37.4667 87 36.7417 87 36C87.0011 35.0058 87.3966 34.0526 88.0996 33.3496C88.8026 32.6466 89.7558 32.2511 90.75 32.25ZM84.75 44.25H90C90.1989 44.25 90.3897 44.329 90.5303 44.4697C90.6711 44.6103 90.75 44.8011 90.75 45C90.75 45.1989 90.6711 45.3897 90.5303 45.5303C90.3897 45.671 90.1989 45.75 90 45.75H84.75C84.5512 45.75 84.3604 45.671 84.2198 45.5303C84.079 45.3897 84 45.1989 84 45C84 44.8011 84.079 44.6103 84.2198 44.4697C84.3604 44.329 84.5512 44.25 84.75 44.25ZM81.75 47.25H87.75C87.9489 47.25 88.1397 47.329 88.2803 47.4697C88.4211 47.6103 88.5 47.8011 88.5 48C88.5 48.1989 88.4211 48.3897 88.2803 48.5303C88.1397 48.671 87.9489 48.75 87.75 48.75H81.75C81.5512 48.75 81.3604 48.671 81.2197 48.5303C81.0791 48.3897 81 48.1989 81 48C81 47.8011 81.0791 47.6103 81.2197 47.4697C81.3604 47.329 81.5512 47.25 81.75 47.25ZM80.9063 51C80.9063 50.8011 80.9853 50.6103 81.126 50.4697C81.2666 50.329 81.4574 50.25 81.6563 50.25H99.75C99.9489 50.25 100.14 50.329 100.28 50.4697C100.421 50.6103 100.5 50.8011 100.5 51C100.5 51.1989 100.421 51.3897 100.28 51.5303C100.14 51.671 99.9489 51.75 99.75 51.75H81.6563C81.4574 51.75 81.2666 51.671 81.126 51.5303C80.9853 51.3897 80.9063 51.1989 80.9063 51ZM97.5 55.5C97.5 55.6989 97.4211 55.8897 97.2803 56.0303C97.1397 56.171 96.9489 56.25 96.75 56.25H92.25C92.0512 56.25 91.8604 56.171 91.7198 56.0303C91.579 55.8897 91.5 55.6989 91.5 55.5C91.5 55.3011 91.579 55.1103 91.7198 54.9697C91.8604 54.829 92.0512 54.75 92.25 54.75H96.75C96.9489 54.75 97.1397 54.829 97.2803 54.9697C97.4211 55.1103 97.5 55.3011 97.5 55.5ZM90 55.5C90 55.6989 89.9211 55.8897 89.7803 56.0303C89.6397 56.171 89.4489 56.25 89.25 56.25H84.75C84.5512 56.25 84.3604 56.171 84.2198 56.0303C84.079 55.8897 84 55.6989 84 55.5C84 55.3011 84.079 55.1103 84.2198 54.9697C84.3604 54.829 84.5512 54.75 84.75 54.75H89.25C89.4489 54.75 89.6397 54.829 89.7803 54.9697C89.9211 55.1103 90 55.3011 90 55.5ZM81.75 59.25C81.5512 59.25 81.3604 59.171 81.2197 59.0303C81.0791 58.8897 81 58.6989 81 58.5C81 58.3011 81.0791 58.1103 81.2197 57.9697C81.3604 57.829 81.5512 57.75 81.75 57.75H96.75C96.9489 57.75 97.1397 57.829 97.2803 57.9697C97.4211 58.1103 97.5 58.3011 97.5 58.5C97.5 58.6989 97.4211 58.8897 97.2803 59.0303C97.1397 59.171 96.9489 59.25 96.75 59.25H81.75Z" fill="#FF2B2B"/>
<path d="M100.189 63.3588C99.7667 63.64 99.4336 64.0359 99.2286 64.5H104.25V60.75H102.401L101.609 61.9388C101.234 62.5017 100.752 62.9844 100.189 63.3588Z" fill="#FF2B2B"/>
<path d="M101.67 68.25H109.83C110.465 68.2492 111.079 68.0223 111.562 67.6101C112.045 67.1978 112.366 66.6271 112.467 66H99.0333C99.134 66.6271 99.4546 67.1978 99.9377 67.6101C100.421 68.0223 101.035 68.2492 101.67 68.25Z" fill="#FF2B2B"/>
<path d="M111 58.5C111 58.3012 110.921 58.1106 110.78 57.9699C110.639 57.8293 110.449 57.7502 110.25 57.75H105.75V59.25H110.25C110.449 59.2498 110.639 59.1707 110.78 59.0301C110.921 58.8894 111 58.6988 111 58.5Z" fill="#FF2B2B"/>
<path d="M114.415 32.3292L115.637 31.7181L116.589 28.8617L114.116 29.5688C113.243 29.8181 112.407 30.1809 111.629 30.6478C110.105 31.5631 108.842 32.8537 107.959 34.3963L106.897 36.2549C104.673 40.1511 103.502 44.5595 103.5 49.0458C103.5 49.9615 103.792 50.8534 104.334 51.5912C104.856 44.0196 107.778 36.8116 112.678 31.0155C112.742 30.9403 112.82 30.8784 112.907 30.8333C112.995 30.7882 113.09 30.7608 113.188 30.7526C113.287 30.7444 113.385 30.7556 113.479 30.7857C113.573 30.8157 113.66 30.8638 113.735 30.9275C113.81 30.9911 113.872 31.0689 113.917 31.1565C113.962 31.244 113.99 31.3396 113.998 31.4378C114.006 31.5359 113.995 31.6347 113.965 31.7285C113.935 31.8223 113.887 31.9093 113.823 31.9845C109.127 37.54 106.327 44.4497 105.83 51.7074C106.76 50.9547 107.607 50.104 108.354 49.1699L109.409 47.85L108.789 45.9871C108.751 45.8743 108.741 45.7543 108.759 45.6369C108.777 45.5194 108.822 45.4078 108.892 45.3115C108.961 45.2151 109.053 45.1366 109.158 45.0824C109.264 45.0282 109.381 45 109.5 45H110.537L112.337 41.3981L111.22 40.2804C111.129 40.19 111.063 40.078 111.028 39.955C110.994 39.832 110.991 39.7021 111.02 39.5777C111.049 39.4532 111.11 39.3384 111.196 39.244C111.283 39.1496 111.392 39.0789 111.513 39.0385L113.407 38.4071L114.69 34.5576L114.079 33.3354C114.035 33.2473 114.008 33.1514 114.001 33.0531C113.995 32.9549 114.007 32.8562 114.038 32.7628C114.069 32.6693 114.119 32.583 114.183 32.5086C114.248 32.4342 114.326 32.3732 114.415 32.3292Z" fill="#FF2B2B"/>
<path d="M97.924 63.75H86.25V64.5C86.2505 65.1988 86.1109 65.8907 85.8397 66.5348C85.5685 67.1788 85.171 67.762 84.6707 68.25H98.4698C97.9535 67.6329 97.6272 66.8796 97.5303 66.0808C97.4335 65.2822 97.5702 64.4725 97.924 63.75Z" fill="#FF2B2B"/>
<path d="M105.75 64.5H112.271C112.067 64.0359 111.733 63.64 111.311 63.3588C110.748 62.9843 110.266 62.5017 109.891 61.9388L109.099 60.75H105.75V64.5Z" fill="#FF2B2B"/>
</svg>
