<svg width="144" height="96" viewBox="0 0 144 96" fill="none" xmlns="http://www.w3.org/2000/svg">
<circle cx="48" cy="48" r="48" fill="#FFC2A8" fill-opacity="0.2"/>
<rect x="48" width="96" height="96" rx="48" fill="#FFDFD1"/>
<path d="M100.875 42.825C100.65 42.675 100.275 42.75 100.125 42.9C98.25 44.25 96 45 93.75 45H90.75C89.1 45 87.75 46.35 87.75 48C87.75 49.65 89.1 51 90.75 51H90.975L91.35 53.55C91.5 54.675 92.475 55.5 93.525 55.5C94.2 55.5 94.8 55.2 95.25 54.75C95.7 54.3 95.85 53.625 95.775 52.95L95.55 51.15C97.2 51.45 98.775 52.125 100.125 53.1C100.275 53.175 100.425 53.25 100.575 53.25C100.725 53.25 100.8 53.25 100.95 53.175C101.175 53.025 101.325 52.8 101.325 52.5V43.5C101.25 43.2 101.1 42.975 100.875 42.825ZM94.125 53.775C93.975 53.925 93.75 54 93.525 54C93.15 54 92.85 53.7 92.775 53.4L92.475 51H93.75C93.825 51 93.9 51 93.975 51L94.275 53.175C94.275 53.4 94.275 53.55 94.125 53.775ZM99.75 51.075C97.95 50.025 95.85 49.5 93.75 49.5V46.5C95.85 46.5 97.95 45.9 99.75 44.85V51.075Z" fill="#FC5F1C"/>
<path d="M106.5 48C106.5 48.375 106.125 48.75 105.75 48.75H103.5C103.125 48.75 102.75 48.375 102.75 48C102.75 47.625 103.125 47.25 103.5 47.25H105.75C106.125 47.25 106.5 47.625 106.5 48Z" fill="#FC5F1C"/>
<path d="M105.375 44.925L103.875 45.675C103.725 45.75 103.65 45.75 103.5 45.75C103.2 45.75 102.975 45.6 102.825 45.375C102.6 45 102.825 44.55 103.125 44.4L104.625 43.65C105 43.425 105.45 43.65 105.6 43.95C105.825 44.25 105.675 44.7 105.375 44.925Z" fill="#FC5F1C"/>
<path d="M105.675 52.125C105.525 52.35 105.3 52.5 105 52.5C104.85 52.5 104.775 52.5 104.625 52.425L103.125 51.675C102.75 51.525 102.6 51.075 102.825 50.7C102.975 50.325 103.425 50.175 103.8 50.4L105.3 51.15C105.675 51.225 105.825 51.75 105.675 52.125Z" fill="#FC5F1C"/>
<path d="M110.25 32.25H111V33C111 34.275 111.975 35.25 113.25 35.25C113.7 35.25 114 34.95 114 34.5C114 34.05 113.7 33.75 113.25 33.75C112.8 33.75 112.5 33.45 112.5 33V32.25H113.25C113.7 32.25 114 31.95 114 31.5C114 31.05 113.7 30.75 113.25 30.75H112.5V30C112.5 29.55 112.2 29.25 111.75 29.25C111.3 29.25 111 29.55 111 30V30.75H110.25C109.8 30.75 109.5 31.05 109.5 31.5C109.5 31.95 109.8 32.25 110.25 32.25Z" fill="#FC5F1C"/>
<path d="M100.875 42.825C100.65 42.675 100.275 42.75 100.125 42.9C98.25 44.25 96 45 93.75 45H90.75C89.1 45 87.75 46.35 87.75 48C87.75 49.65 89.1 51 90.75 51H90.975L91.35 53.55C91.5 54.675 92.475 55.5 93.525 55.5C94.2 55.5 94.8 55.2 95.25 54.75C95.7 54.3 95.85 53.625 95.775 52.95L95.55 51.15C97.2 51.45 98.775 52.125 100.125 53.1C100.275 53.175 100.425 53.25 100.575 53.25C100.725 53.25 100.8 53.25 100.95 53.175C101.175 53.025 101.325 52.8 101.325 52.5V43.5C101.25 43.2 101.1 42.975 100.875 42.825ZM94.125 53.775C93.975 53.925 93.75 54 93.525 54C93.15 54 92.85 53.7 92.775 53.4L92.475 51H93.75C93.825 51 93.9 51 93.975 51L94.275 53.175C94.275 53.4 94.275 53.55 94.125 53.775ZM99.75 51.075C97.95 50.025 95.85 49.5 93.75 49.5V46.5C95.85 46.5 97.95 45.9 99.75 44.85V51.075ZM105.375 51.075L103.875 50.325C103.5 50.1 103.05 50.325 102.9 50.625C102.675 51 102.9 51.45 103.2 51.6L104.7 52.35C104.775 52.5 104.85 52.5 105 52.5C105.3 52.5 105.525 52.35 105.675 52.125C105.825 51.75 105.675 51.225 105.375 51.075ZM105.675 43.875C105.525 43.5 105.075 43.35 104.7 43.575L103.2 44.325C102.825 44.475 102.675 44.925 102.9 45.3C103.05 45.525 103.275 45.675 103.575 45.675C103.725 45.675 103.8 45.675 103.95 45.6L105.45 44.85C105.675 44.7 105.825 44.25 105.675 43.875ZM105.75 47.25H103.5C103.125 47.25 102.75 47.625 102.75 48C102.75 48.375 103.125 48.75 103.5 48.75H105.75C106.125 48.75 106.5 48.375 106.5 48C106.5 47.625 106.125 47.25 105.75 47.25ZM105.75 47.25H103.5C103.125 47.25 102.75 47.625 102.75 48C102.75 48.375 103.125 48.75 103.5 48.75H105.75C106.125 48.75 106.5 48.375 106.5 48C106.5 47.625 106.125 47.25 105.75 47.25ZM105.675 43.875C105.525 43.5 105.075 43.35 104.7 43.575L103.2 44.325C102.825 44.475 102.675 44.925 102.9 45.3C103.05 45.525 103.275 45.675 103.575 45.675C103.725 45.675 103.8 45.675 103.95 45.6L105.45 44.85C105.675 44.7 105.825 44.25 105.675 43.875ZM105.375 51.075L103.875 50.325C103.5 50.1 103.05 50.325 102.9 50.625C102.675 51 102.9 51.45 103.2 51.6L104.7 52.35C104.775 52.5 104.85 52.5 105 52.5C105.3 52.5 105.525 52.35 105.675 52.125C105.825 51.75 105.675 51.225 105.375 51.075ZM100.875 42.825C100.65 42.675 100.275 42.75 100.125 42.9C98.25 44.25 96 45 93.75 45H90.75C89.1 45 87.75 46.35 87.75 48C87.75 49.65 89.1 51 90.75 51H90.975L91.35 53.55C91.5 54.675 92.475 55.5 93.525 55.5C94.2 55.5 94.8 55.2 95.25 54.75C95.7 54.3 95.85 53.625 95.775 52.95L95.55 51.15C97.2 51.45 98.775 52.125 100.125 53.1C100.275 53.175 100.425 53.25 100.575 53.25C100.725 53.25 100.8 53.25 100.95 53.175C101.175 53.025 101.325 52.8 101.325 52.5V43.5C101.25 43.2 101.1 42.975 100.875 42.825ZM94.125 53.775C93.975 53.925 93.75 54 93.525 54C93.15 54 92.85 53.7 92.775 53.4L92.475 51H93.75C93.825 51 93.9 51 93.975 51L94.275 53.175C94.275 53.4 94.275 53.55 94.125 53.775ZM99.75 51.075C97.95 50.025 95.85 49.5 93.75 49.5V46.5C95.85 46.5 97.95 45.9 99.75 44.85V51.075ZM100.875 42.825C100.65 42.675 100.275 42.75 100.125 42.9C98.25 44.25 96 45 93.75 45H90.75C89.1 45 87.75 46.35 87.75 48C87.75 49.65 89.1 51 90.75 51H90.975L91.35 53.55C91.5 54.675 92.475 55.5 93.525 55.5C94.2 55.5 94.8 55.2 95.25 54.75C95.7 54.3 95.85 53.625 95.775 52.95L95.55 51.15C97.2 51.45 98.775 52.125 100.125 53.1C100.275 53.175 100.425 53.25 100.575 53.25C100.725 53.25 100.8 53.25 100.95 53.175C101.175 53.025 101.325 52.8 101.325 52.5V43.5C101.25 43.2 101.1 42.975 100.875 42.825ZM94.125 53.775C93.975 53.925 93.75 54 93.525 54C93.15 54 92.85 53.7 92.775 53.4L92.475 51H93.75C93.825 51 93.9 51 93.975 51L94.275 53.175C94.275 53.4 94.275 53.55 94.125 53.775ZM99.75 51.075C97.95 50.025 95.85 49.5 93.75 49.5V46.5C95.85 46.5 97.95 45.9 99.75 44.85V51.075ZM105.375 51.075L103.875 50.325C103.5 50.1 103.05 50.325 102.9 50.625C102.675 51 102.9 51.45 103.2 51.6L104.7 52.35C104.775 52.5 104.85 52.5 105 52.5C105.3 52.5 105.525 52.35 105.675 52.125C105.825 51.75 105.675 51.225 105.375 51.075ZM105.675 43.875C105.525 43.5 105.075 43.35 104.7 43.575L103.2 44.325C102.825 44.475 102.675 44.925 102.9 45.3C103.05 45.525 103.275 45.675 103.575 45.675C103.725 45.675 103.8 45.675 103.95 45.6L105.45 44.85C105.675 44.7 105.825 44.25 105.675 43.875ZM105.75 47.25H103.5C103.125 47.25 102.75 47.625 102.75 48C102.75 48.375 103.125 48.75 103.5 48.75H105.75C106.125 48.75 106.5 48.375 106.5 48C106.5 47.625 106.125 47.25 105.75 47.25ZM105.75 47.25H103.5C103.125 47.25 102.75 47.625 102.75 48C102.75 48.375 103.125 48.75 103.5 48.75H105.75C106.125 48.75 106.5 48.375 106.5 48C106.5 47.625 106.125 47.25 105.75 47.25ZM105.675 43.875C105.525 43.5 105.075 43.35 104.7 43.575L103.2 44.325C102.825 44.475 102.675 44.925 102.9 45.3C103.05 45.525 103.275 45.675 103.575 45.675C103.725 45.675 103.8 45.675 103.95 45.6L105.45 44.85C105.675 44.7 105.825 44.25 105.675 43.875ZM105.375 51.075L103.875 50.325C103.5 50.1 103.05 50.325 102.9 50.625C102.675 51 102.9 51.45 103.2 51.6L104.7 52.35C104.775 52.5 104.85 52.5 105 52.5C105.3 52.5 105.525 52.35 105.675 52.125C105.825 51.75 105.675 51.225 105.375 51.075ZM100.875 42.825C100.65 42.675 100.275 42.75 100.125 42.9C98.25 44.25 96 45 93.75 45H90.75C89.1 45 87.75 46.35 87.75 48C87.75 49.65 89.1 51 90.75 51H90.975L91.35 53.55C91.5 54.675 92.475 55.5 93.525 55.5C94.2 55.5 94.8 55.2 95.25 54.75C95.7 54.3 95.85 53.625 95.775 52.95L95.55 51.15C97.2 51.45 98.775 52.125 100.125 53.1C100.275 53.175 100.425 53.25 100.575 53.25C100.725 53.25 100.8 53.25 100.95 53.175C101.175 53.025 101.325 52.8 101.325 52.5V43.5C101.25 43.2 101.1 42.975 100.875 42.825ZM94.125 53.775C93.975 53.925 93.75 54 93.525 54C93.15 54 92.85 53.7 92.775 53.4L92.475 51H93.75C93.825 51 93.9 51 93.975 51L94.275 53.175C94.275 53.4 94.275 53.55 94.125 53.775ZM99.75 51.075C97.95 50.025 95.85 49.5 93.75 49.5V46.5C95.85 46.5 97.95 45.9 99.75 44.85V51.075ZM88.275 29.85C86.925 27.3 84.15 25.5 81 25.5C76.425 25.5 72.75 29.175 72.75 33.75C72.75 37.125 74.775 40.05 77.7 41.325C77.775 41.325 77.775 41.325 77.775 41.4C78.825 41.775 79.875 42 81 42C85.575 42 89.25 38.325 89.25 33.75C89.25 32.4 88.95 31.05 88.275 29.85ZM81 40.5C77.25 40.5 74.25 37.5 74.25 33.75C74.25 30 77.25 27 81 27C84.75 27 87.75 30 87.75 33.75C87.75 37.5 84.75 40.5 81 40.5ZM100.875 42.825C100.65 42.675 100.275 42.75 100.125 42.9C98.25 44.25 96 45 93.75 45H90.75C89.1 45 87.75 46.35 87.75 48C87.75 49.65 89.1 51 90.75 51H90.975L91.35 53.55C91.5 54.675 92.475 55.5 93.525 55.5C94.2 55.5 94.8 55.2 95.25 54.75C95.7 54.3 95.85 53.625 95.775 52.95L95.55 51.15C97.2 51.45 98.775 52.125 100.125 53.1C100.275 53.175 100.425 53.25 100.575 53.25C100.725 53.25 100.8 53.25 100.95 53.175C101.175 53.025 101.325 52.8 101.325 52.5V43.5C101.25 43.2 101.1 42.975 100.875 42.825ZM94.125 53.775C93.975 53.925 93.75 54 93.525 54C93.15 54 92.85 53.7 92.775 53.4L92.475 51H93.75C93.825 51 93.9 51 93.975 51L94.275 53.175C94.275 53.4 94.275 53.55 94.125 53.775ZM99.75 51.075C97.95 50.025 95.85 49.5 93.75 49.5V46.5C95.85 46.5 97.95 45.9 99.75 44.85V51.075ZM105.375 51.075L103.875 50.325C103.5 50.1 103.05 50.325 102.9 50.625C102.675 51 102.9 51.45 103.2 51.6L104.7 52.35C104.775 52.5 104.85 52.5 105 52.5C105.3 52.5 105.525 52.35 105.675 52.125C105.825 51.75 105.675 51.225 105.375 51.075ZM105.675 43.875C105.525 43.5 105.075 43.35 104.7 43.575L103.2 44.325C102.825 44.475 102.675 44.925 102.9 45.3C103.05 45.525 103.275 45.675 103.575 45.675C103.725 45.675 103.8 45.675 103.95 45.6L105.45 44.85C105.675 44.7 105.825 44.25 105.675 43.875ZM105.75 47.25H103.5C103.125 47.25 102.75 47.625 102.75 48C102.75 48.375 103.125 48.75 103.5 48.75H105.75C106.125 48.75 106.5 48.375 106.5 48C106.5 47.625 106.125 47.25 105.75 47.25ZM100.875 42.825C100.65 42.675 100.275 42.75 100.125 42.9C98.25 44.25 96 45 93.75 45H90.75C89.1 45 87.75 46.35 87.75 48C87.75 49.65 89.1 51 90.75 51H90.975L91.35 53.55C91.5 54.675 92.475 55.5 93.525 55.5C94.2 55.5 94.8 55.2 95.25 54.75C95.7 54.3 95.85 53.625 95.775 52.95L95.55 51.15C97.2 51.45 98.775 52.125 100.125 53.1C100.275 53.175 100.425 53.25 100.575 53.25C100.725 53.25 100.8 53.25 100.95 53.175C101.175 53.025 101.325 52.8 101.325 52.5V43.5C101.25 43.2 101.1 42.975 100.875 42.825ZM94.125 53.775C93.975 53.925 93.75 54 93.525 54C93.15 54 92.85 53.7 92.775 53.4L92.475 51H93.75C93.825 51 93.9 51 93.975 51L94.275 53.175C94.275 53.4 94.275 53.55 94.125 53.775ZM99.75 51.075C97.95 50.025 95.85 49.5 93.75 49.5V46.5C95.85 46.5 97.95 45.9 99.75 44.85V51.075ZM104.925 59.1C102.825 60.6 100.275 61.5 97.5 61.5C90.45 61.5 84.75 55.8 84.75 48.75C84.75 45.975 85.65 43.35 87.15 41.325C85.5 42.675 83.325 43.5 81 43.5C79.725 43.5 78.525 43.275 77.4 42.825C76.8 44.7 76.5 46.725 76.5 48.75C76.5 51.075 76.875 53.325 77.625 55.5C77.775 55.5 77.85 55.5 78 55.5H84C86.475 55.5 88.5 57.525 88.5 60V66C88.5 66.525 88.425 67.05 88.2 67.575C91.125 69 94.275 69.75 97.5 69.75C100.05 69.75 102.6 69.3 104.925 68.4C104.025 67.05 103.5 65.4 103.5 63.75C103.5 62.025 104.025 60.375 104.925 59.1ZM86.85 66.825C87 66.525 87 66.3 87 66V60C87 58.35 85.65 57 84 57H78C77.775 57 77.625 57 77.475 57.075C77.25 57.075 77.1 57.15 77.1 57.15C75.825 57.525 75 58.65 75 60V66C75 67.65 76.35 69 78 69H84C85.35 69 86.475 68.1 86.85 66.825ZM85.5 66C85.5 66.825 84.825 67.5 84 67.5H78C77.175 67.5 76.5 66.825 76.5 66V60C76.5 59.175 77.175 58.5 78 58.5H84C84.825 58.5 85.5 59.175 85.5 60V66ZM105.375 51.075L103.875 50.325C103.5 50.1 103.05 50.325 102.9 50.625C102.675 51 102.9 51.45 103.2 51.6L104.7 52.35C104.775 52.5 104.85 52.5 105 52.5C105.3 52.5 105.525 52.35 105.675 52.125C105.825 51.75 105.675 51.225 105.375 51.075ZM105.675 43.875C105.525 43.5 105.075 43.35 104.7 43.575L103.2 44.325C102.825 44.475 102.675 44.925 102.9 45.3C103.05 45.525 103.275 45.675 103.575 45.675C103.725 45.675 103.8 45.675 103.95 45.6L105.45 44.85C105.675 44.7 105.825 44.25 105.675 43.875ZM105.75 47.25H103.5C103.125 47.25 102.75 47.625 102.75 48C102.75 48.375 103.125 48.75 103.5 48.75H105.75C106.125 48.75 106.5 48.375 106.5 48C106.5 47.625 106.125 47.25 105.75 47.25ZM116.175 58.65L116.1 58.575C114.825 57.525 113.325 57 111.75 57C108 57 105 60 105 63.75C105 65.25 105.45 66.6 106.35 67.8C107.55 69.45 109.5 70.5 111.75 70.5C115.5 70.5 118.5 67.5 118.5 63.75C118.5 61.725 117.6 59.85 116.175 58.65ZM111.75 69C108.825 69 106.5 66.675 106.5 63.75C106.5 60.825 108.825 58.5 111.75 58.5C114.675 58.5 117 60.825 117 63.75C117 66.675 114.675 69 111.75 69ZM116.25 39.225C115.5 39.6 114.75 39.75 114 39.75H109.5C106.575 39.75 104.25 37.425 104.25 34.5V30C104.25 29.625 104.25 29.25 104.4 28.875C102.225 28.125 99.9 27.75 97.5 27.75C94.8 27.75 92.1 28.275 89.625 29.25C90.375 30.6 90.75 32.175 90.75 33.75C90.75 35.775 90.15 37.65 89.1 39.15C91.35 37.2 94.275 36 97.5 36C104.55 36 110.25 41.7 110.25 48.75C110.25 51.75 109.2 54.525 107.4 56.7C108.675 55.95 110.1 55.5 111.75 55.5C113.55 55.5 115.275 56.1 116.7 57.15C117.9 54.525 118.5 51.675 118.5 48.75C118.5 45.45 117.75 42.15 116.25 39.225ZM105.75 47.25H103.5C103.125 47.25 102.75 47.625 102.75 48C102.75 48.375 103.125 48.75 103.5 48.75H105.75C106.125 48.75 106.5 48.375 106.5 48C106.5 47.625 106.125 47.25 105.75 47.25ZM103.5 45.75C103.65 45.75 103.725 45.75 103.875 45.675L105.375 44.925C105.75 44.775 105.9 44.325 105.675 43.95C105.525 43.575 105.075 43.425 104.7 43.65L103.2 44.4C102.825 44.55 102.675 45 102.9 45.375C102.975 45.6 103.2 45.75 103.5 45.75ZM105.375 51.075L103.875 50.325C103.5 50.1 103.05 50.325 102.9 50.625C102.675 51 102.9 51.45 103.2 51.6L104.7 52.35C104.775 52.5 104.85 52.5 105 52.5C105.3 52.5 105.525 52.35 105.675 52.125C105.825 51.75 105.675 51.225 105.375 51.075ZM100.875 42.825C100.65 42.675 100.275 42.75 100.125 42.9C98.25 44.25 96 45 93.75 45H90.75C89.1 45 87.75 46.35 87.75 48C87.75 49.65 89.1 51 90.75 51H90.975L91.35 53.55C91.5 54.675 92.475 55.5 93.525 55.5C94.2 55.5 94.8 55.2 95.25 54.75C95.7 54.3 95.85 53.625 95.775 52.95L95.55 51.15C97.2 51.45 98.775 52.125 100.125 53.1C100.275 53.175 100.425 53.25 100.575 53.25C100.725 53.25 100.8 53.25 100.95 53.175C101.175 53.025 101.325 52.8 101.325 52.5V43.5C101.25 43.2 101.1 42.975 100.875 42.825ZM94.125 53.775C93.975 53.925 93.75 54 93.525 54C93.15 54 92.85 53.7 92.775 53.4L92.475 51H93.75C93.825 51 93.9 51 93.975 51L94.275 53.175C94.275 53.4 94.275 53.55 94.125 53.775ZM99.75 51.075C97.95 50.025 95.85 49.5 93.75 49.5V46.5C95.85 46.5 97.95 45.9 99.75 44.85V51.075ZM115.575 37.875C116.85 37.275 117.75 36 117.75 34.5V30C117.75 27.9 116.1 26.25 114 26.25H109.5C107.625 26.25 106.05 27.675 105.825 29.475C105.825 29.625 105.825 29.85 105.825 30V34.5C105.825 36.6 107.475 38.25 109.575 38.25H114.075C114.6 38.25 115.125 38.175 115.575 37.95V37.875ZM116.25 34.5C116.25 35.7 115.275 36.75 114 36.75H109.5C108.225 36.75 107.25 35.7 107.25 34.5V30C107.25 28.725 108.225 27.75 109.5 27.75H114C115.275 27.75 116.25 28.725 116.25 30V34.5ZM105.75 47.25H103.5C103.125 47.25 102.75 47.625 102.75 48C102.75 48.375 103.125 48.75 103.5 48.75H105.75C106.125 48.75 106.5 48.375 106.5 48C106.5 47.625 106.125 47.25 105.75 47.25ZM105.675 43.875C105.525 43.5 105.075 43.35 104.7 43.575L103.2 44.325C102.825 44.475 102.675 44.925 102.9 45.3C103.05 45.525 103.275 45.675 103.575 45.675C103.725 45.675 103.8 45.675 103.95 45.6L105.45 44.85C105.675 44.7 105.825 44.25 105.675 43.875ZM105.375 51.075L103.875 50.325C103.5 50.1 103.05 50.325 102.9 50.625C102.675 51 102.9 51.45 103.2 51.6L104.7 52.35C104.775 52.5 104.85 52.5 105 52.5C105.3 52.5 105.525 52.35 105.675 52.125C105.825 51.75 105.675 51.225 105.375 51.075ZM100.875 42.825C100.65 42.675 100.275 42.75 100.125 42.9C98.25 44.25 96 45 93.75 45H90.75C89.1 45 87.75 46.35 87.75 48C87.75 49.65 89.1 51 90.75 51H90.975L91.35 53.55C91.5 54.675 92.475 55.5 93.525 55.5C94.2 55.5 94.8 55.2 95.25 54.75C95.7 54.3 95.85 53.625 95.775 52.95L95.55 51.15C97.2 51.45 98.775 52.125 100.125 53.1C100.275 53.175 100.425 53.25 100.575 53.25C100.725 53.25 100.8 53.25 100.95 53.175C101.175 53.025 101.325 52.8 101.325 52.5V43.5C101.25 43.2 101.1 42.975 100.875 42.825ZM94.125 53.775C93.975 53.925 93.75 54 93.525 54C93.15 54 92.85 53.7 92.775 53.4L92.475 51H93.75C93.825 51 93.9 51 93.975 51L94.275 53.175C94.275 53.4 94.275 53.55 94.125 53.775ZM99.75 51.075C97.95 50.025 95.85 49.5 93.75 49.5V46.5C95.85 46.5 97.95 45.9 99.75 44.85V51.075ZM100.875 42.825C100.65 42.675 100.275 42.75 100.125 42.9C98.25 44.25 96 45 93.75 45H90.75C89.1 45 87.75 46.35 87.75 48C87.75 49.65 89.1 51 90.75 51H90.975L91.35 53.55C91.5 54.675 92.475 55.5 93.525 55.5C94.2 55.5 94.8 55.2 95.25 54.75C95.7 54.3 95.85 53.625 95.775 52.95L95.55 51.15C97.2 51.45 98.775 52.125 100.125 53.1C100.275 53.175 100.425 53.25 100.575 53.25C100.725 53.25 100.8 53.25 100.95 53.175C101.175 53.025 101.325 52.8 101.325 52.5V43.5C101.25 43.2 101.1 42.975 100.875 42.825ZM94.125 53.775C93.975 53.925 93.75 54 93.525 54C93.15 54 92.85 53.7 92.775 53.4L92.475 51H93.75C93.825 51 93.9 51 93.975 51L94.275 53.175C94.275 53.4 94.275 53.55 94.125 53.775ZM99.75 51.075C97.95 50.025 95.85 49.5 93.75 49.5V46.5C95.85 46.5 97.95 45.9 99.75 44.85V51.075ZM105.375 51.075L103.875 50.325C103.5 50.1 103.05 50.325 102.9 50.625C102.675 51 102.9 51.45 103.2 51.6L104.7 52.35C104.775 52.5 104.85 52.5 105 52.5C105.3 52.5 105.525 52.35 105.675 52.125C105.825 51.75 105.675 51.225 105.375 51.075ZM105.675 43.875C105.525 43.5 105.075 43.35 104.7 43.575L103.2 44.325C102.825 44.475 102.675 44.925 102.9 45.3C103.05 45.525 103.275 45.675 103.575 45.675C103.725 45.675 103.8 45.675 103.95 45.6L105.45 44.85C105.675 44.7 105.825 44.25 105.675 43.875ZM105.75 47.25H103.5C103.125 47.25 102.75 47.625 102.75 48C102.75 48.375 103.125 48.75 103.5 48.75H105.75C106.125 48.75 106.5 48.375 106.5 48C106.5 47.625 106.125 47.25 105.75 47.25ZM105.75 47.25H103.5C103.125 47.25 102.75 47.625 102.75 48C102.75 48.375 103.125 48.75 103.5 48.75H105.75C106.125 48.75 106.5 48.375 106.5 48C106.5 47.625 106.125 47.25 105.75 47.25ZM105.675 43.875C105.525 43.5 105.075 43.35 104.7 43.575L103.2 44.325C102.825 44.475 102.675 44.925 102.9 45.3C103.05 45.525 103.275 45.675 103.575 45.675C103.725 45.675 103.8 45.675 103.95 45.6L105.45 44.85C105.675 44.7 105.825 44.25 105.675 43.875ZM105.375 51.075L103.875 50.325C103.5 50.1 103.05 50.325 102.9 50.625C102.675 51 102.9 51.45 103.2 51.6L104.7 52.35C104.775 52.5 104.85 52.5 105 52.5C105.3 52.5 105.525 52.35 105.675 52.125C105.825 51.75 105.675 51.225 105.375 51.075ZM100.875 42.825C100.65 42.675 100.275 42.75 100.125 42.9C98.25 44.25 96 45 93.75 45H90.75C89.1 45 87.75 46.35 87.75 48C87.75 49.65 89.1 51 90.75 51H90.975L91.35 53.55C91.5 54.675 92.475 55.5 93.525 55.5C94.2 55.5 94.8 55.2 95.25 54.75C95.7 54.3 95.85 53.625 95.775 52.95L95.55 51.15C97.2 51.45 98.775 52.125 100.125 53.1C100.275 53.175 100.425 53.25 100.575 53.25C100.725 53.25 100.8 53.25 100.95 53.175C101.175 53.025 101.325 52.8 101.325 52.5V43.5C101.25 43.2 101.1 42.975 100.875 42.825ZM94.125 53.775C93.975 53.925 93.75 54 93.525 54C93.15 54 92.85 53.7 92.775 53.4L92.475 51H93.75C93.825 51 93.9 51 93.975 51L94.275 53.175C94.275 53.4 94.275 53.55 94.125 53.775ZM99.75 51.075C97.95 50.025 95.85 49.5 93.75 49.5V46.5C95.85 46.5 97.95 45.9 99.75 44.85V51.075ZM100.875 42.825C100.65 42.675 100.275 42.75 100.125 42.9C98.25 44.25 96 45 93.75 45H90.75C89.1 45 87.75 46.35 87.75 48C87.75 49.65 89.1 51 90.75 51H90.975L91.35 53.55C91.5 54.675 92.475 55.5 93.525 55.5C94.2 55.5 94.8 55.2 95.25 54.75C95.7 54.3 95.85 53.625 95.775 52.95L95.55 51.15C97.2 51.45 98.775 52.125 100.125 53.1C100.275 53.175 100.425 53.25 100.575 53.25C100.725 53.25 100.8 53.25 100.95 53.175C101.175 53.025 101.325 52.8 101.325 52.5V43.5C101.25 43.2 101.1 42.975 100.875 42.825ZM94.125 53.775C93.975 53.925 93.75 54 93.525 54C93.15 54 92.85 53.7 92.775 53.4L92.475 51H93.75C93.825 51 93.9 51 93.975 51L94.275 53.175C94.275 53.4 94.275 53.55 94.125 53.775ZM99.75 51.075C97.95 50.025 95.85 49.5 93.75 49.5V46.5C95.85 46.5 97.95 45.9 99.75 44.85V51.075ZM105.375 51.075L103.875 50.325C103.5 50.1 103.05 50.325 102.9 50.625C102.675 51 102.9 51.45 103.2 51.6L104.7 52.35C104.775 52.5 104.85 52.5 105 52.5C105.3 52.5 105.525 52.35 105.675 52.125C105.825 51.75 105.675 51.225 105.375 51.075ZM105.675 43.875C105.525 43.5 105.075 43.35 104.7 43.575L103.2 44.325C102.825 44.475 102.675 44.925 102.9 45.3C103.05 45.525 103.275 45.675 103.575 45.675C103.725 45.675 103.8 45.675 103.95 45.6L105.45 44.85C105.675 44.7 105.825 44.25 105.675 43.875ZM105.75 47.25H103.5C103.125 47.25 102.75 47.625 102.75 48C102.75 48.375 103.125 48.75 103.5 48.75H105.75C106.125 48.75 106.5 48.375 106.5 48C106.5 47.625 106.125 47.25 105.75 47.25ZM105.75 47.25H103.5C103.125 47.25 102.75 47.625 102.75 48C102.75 48.375 103.125 48.75 103.5 48.75H105.75C106.125 48.75 106.5 48.375 106.5 48C106.5 47.625 106.125 47.25 105.75 47.25ZM105.675 43.875C105.525 43.5 105.075 43.35 104.7 43.575L103.2 44.325C102.825 44.475 102.675 44.925 102.9 45.3C103.05 45.525 103.275 45.675 103.575 45.675C103.725 45.675 103.8 45.675 103.95 45.6L105.45 44.85C105.675 44.7 105.825 44.25 105.675 43.875ZM105.375 51.075L103.875 50.325C103.5 50.1 103.05 50.325 102.9 50.625C102.675 51 102.9 51.45 103.2 51.6L104.7 52.35C104.775 52.5 104.85 52.5 105 52.5C105.3 52.5 105.525 52.35 105.675 52.125C105.825 51.75 105.675 51.225 105.375 51.075ZM100.875 42.825C100.65 42.675 100.275 42.75 100.125 42.9C98.25 44.25 96 45 93.75 45H90.75C89.1 45 87.75 46.35 87.75 48C87.75 49.65 89.1 51 90.75 51H90.975L91.35 53.55C91.5 54.675 92.475 55.5 93.525 55.5C94.2 55.5 94.8 55.2 95.25 54.75C95.7 54.3 95.85 53.625 95.775 52.95L95.55 51.15C97.2 51.45 98.775 52.125 100.125 53.1C100.275 53.175 100.425 53.25 100.575 53.25C100.725 53.25 100.8 53.25 100.95 53.175C101.175 53.025 101.325 52.8 101.325 52.5V43.5C101.25 43.2 101.1 42.975 100.875 42.825ZM94.125 53.775C93.975 53.925 93.75 54 93.525 54C93.15 54 92.85 53.7 92.775 53.4L92.475 51H93.75C93.825 51 93.9 51 93.975 51L94.275 53.175C94.275 53.4 94.275 53.55 94.125 53.775ZM99.75 51.075C97.95 50.025 95.85 49.5 93.75 49.5V46.5C95.85 46.5 97.95 45.9 99.75 44.85V51.075Z" fill="#FC5F1C"/>
<path d="M114.375 63.075L110.625 60.825C110.4 60.675 110.1 60.675 109.875 60.825C109.65 60.975 109.5 61.2 109.5 61.5V66C109.5 66.3 109.65 66.525 109.875 66.675C110.025 66.75 110.1 66.75 110.25 66.75C110.4 66.75 110.55 66.75 110.625 66.675L114.375 64.425C114.6 64.275 114.75 64.05 114.75 63.75C114.75 63.45 114.6 63.225 114.375 63.075Z" fill="#FC5F1C"/>
<path d="M81 60C79.35 60 78 61.35 78 63C78 64.65 79.35 66 81 66C82.65 66 84 64.65 84 63C84 61.35 82.65 60 81 60Z" fill="#FC5F1C"/>
<path d="M84.3 31.5C84.375 30.9 84.3 30.225 83.925 29.7C83.475 28.95 82.65 28.5 81.675 28.5C81.375 28.5 81.15 28.65 81 28.875L79.8 31.5H77.25C76.875 31.5 76.5 31.875 76.5 32.25V36.75C76.5 37.125 76.875 37.5 77.25 37.5H84C85.275 37.5 86.25 36.45 86.25 35.25V33.75C86.25 32.625 85.425 31.65 84.3 31.5ZM84.75 35.25C84.75 35.625 84.375 36 84 36H81V32.4L82.2 30.075C82.425 30.15 82.575 30.3 82.725 30.525C82.95 30.825 82.95 31.275 82.8 31.575L82.65 31.875C82.5 32.1 82.575 32.4 82.65 32.625C82.8 32.85 83.025 33 83.25 33H84C84.375 33 84.75 33.375 84.75 33.75V35.25Z" fill="#FC5F1C"/>
</svg>
