<svg width="28" height="28" viewBox="0 0 28 28" fill="none" xmlns="http://www.w3.org/2000/svg">
<path d="M0.673706 14.0026C0.675266 20.5618 5.44492 26.1467 11.9231 27.1746V17.8559H8.54037V14.0026H11.9271V11.0693C11.7756 9.67936 12.2504 8.29411 13.2226 7.28923C14.1947 6.28435 15.5635 5.764 16.9578 5.86931C17.9584 5.88548 18.9566 5.9746 19.9444 6.13599V9.41464H18.2591C17.6788 9.33866 17.0955 9.53028 16.6734 9.93554C16.2512 10.3408 16.036 10.9158 16.0884 11.4986V14.0026H19.7831L19.1924 17.8573H16.0884V27.1746C23.0943 26.0674 28.0071 19.669 27.2678 12.6147C26.5283 5.56047 20.3954 0.319882 13.3122 0.689549C6.22885 1.05922 0.674839 6.90972 0.673706 14.0026Z" fill="white" fill-opacity="0.8"/>
</svg>
