<svg width="144" height="96" viewBox="0 0 144 96" fill="none" xmlns="http://www.w3.org/2000/svg">
<circle cx="48" cy="48" r="48" fill="#FFF2D3" fill-opacity="0.2"/>
<rect x="48" width="96" height="96" rx="48" fill="#FFF6E2"/>
<path d="M97.3462 25.5014C96.1499 25.5126 95.3898 25.629 94.7973 25.938C94.1339 26.2841 93.8984 26.7859 93.7339 27.1772C93.5692 27.5686 93.4765 27.8514 93.2036 28.1748C92.9309 28.4982 92.4572 28.8858 91.4809 29.2983C90.5047 29.7108 89.8952 29.7819 89.4712 29.7524C89.0471 29.7229 88.7779 29.59 88.3813 29.436C87.9847 29.2821 87.453 29.1037 86.748 29.3364C86.1134 29.5459 85.5053 30.0101 84.6665 30.8598C83.8277 31.7096 83.3656 32.3427 83.1709 32.9634C82.971 33.6008 83.0965 34.1005 83.2983 34.5908C83.4599 34.9834 83.5942 35.2503 83.6308 35.6704C83.6674 36.0905 83.6082 36.6958 83.2104 37.6743C82.8132 38.6528 82.4324 39.1317 82.1133 39.4072C81.7941 39.6827 81.5143 39.781 81.1274 39.9448C80.7406 40.1086 80.2368 40.3375 79.8984 40.9907C79.6083 41.5507 79.4893 42.3281 79.4985 43.4985C79.49 44.6689 79.6065 45.4445 79.8984 46.0078C80.2035 46.5967 80.6604 46.8618 81.1274 47.0595C81.5143 47.2234 81.7941 47.3158 82.1133 47.5913C82.4324 47.8668 82.8132 48.3457 83.2104 49.3242C83.6076 50.3027 83.6675 50.908 83.6308 51.3281C83.5943 51.7482 83.4599 52.0151 83.2983 52.4077C83.1727 52.7132 83.0791 53.0067 83.0683 53.3701L74.8887 59.9707C72.9532 61.5325 73.1384 64.4711 74.833 66.1655C76.5275 67.8599 79.4674 68.0452 81.0293 66.1098L87.7807 57.7412C87.9778 57.7041 88.1784 57.6404 88.3828 57.561C88.7794 57.4071 89.0486 57.2755 89.4726 57.2461C89.8967 57.2166 90.5062 57.2937 91.4824 57.706C92.4587 58.1185 92.9323 58.5003 93.2051 58.8237C93.4778 59.1471 93.5708 59.4343 93.7353 59.8257C93.9 60.217 94.1562 60.7311 94.7988 61.0664C95.368 61.3633 96.15 61.4883 97.3462 61.4985C98.5423 61.5099 99.3062 61.4035 99.9038 61.1045C100.557 60.7779 100.812 60.2757 100.983 59.8872C101.155 59.4987 101.253 59.2142 101.531 58.8955C101.81 58.5767 102.293 58.2015 103.276 57.8056C104.259 57.4098 104.867 57.3485 105.29 57.3852C105.714 57.4218 105.982 57.5556 106.375 57.7163C106.769 57.877 107.308 58.0598 108.003 57.8437C108.641 57.645 109.265 57.1908 110.118 56.3554C110.971 55.5201 111.435 54.9123 111.646 54.2783C111.857 53.6443 111.751 53.1736 111.546 52.6509C111.392 52.2555 111.261 51.9802 111.231 51.5595C111.202 51.1389 111.276 50.539 111.69 49.5674C112.104 48.5957 112.487 48.1217 112.815 47.8447C113.143 47.5678 113.438 47.4689 113.839 47.2866C114.239 47.1043 114.746 46.8258 115.074 46.1572C115.357 45.5793 115.49 44.7475 115.5 43.4985C115.489 42.2495 115.374 41.4604 115.074 40.8471C114.774 40.2339 114.328 39.9344 113.839 39.7119C113.438 39.5296 113.143 39.4307 112.815 39.1538C112.487 38.8768 112.104 38.4028 111.69 37.4311C111.276 36.4595 111.202 35.8596 111.231 35.4389C111.261 35.0183 111.392 34.7503 111.546 34.355C111.701 33.9596 111.881 33.4268 111.646 32.7217C111.435 32.0877 110.971 31.4799 110.118 30.6445C109.265 29.8091 108.641 29.3548 108.003 29.1562C107.308 28.9399 106.769 29.1229 106.375 29.2837C105.982 29.4444 105.714 29.5781 105.29 29.6147C104.867 29.6513 104.259 29.5892 103.276 29.1943C102.293 28.7985 101.81 28.4232 101.531 28.1045C101.253 27.7857 101.155 27.5013 100.983 27.1128C100.812 26.7243 100.554 26.2208 99.9038 25.8955C99.3062 25.5965 98.5425 25.4914 97.3462 25.5014ZM97.3564 27.0029C98.4462 26.9941 99.0077 27.121 99.2344 27.2343C99.4047 27.3197 99.477 27.409 99.6152 27.7221C99.7533 28.0354 99.9391 28.5589 100.402 29.0888C100.865 29.6188 101.58 30.1329 102.716 30.5903C103.852 31.0477 104.722 31.1696 105.423 31.1089C106.125 31.0482 106.627 30.8007 106.945 30.6709C107.201 30.5666 107.345 30.5231 107.561 30.5903C107.853 30.681 108.289 30.9532 109.066 31.7138C109.843 32.4745 110.13 32.9174 110.224 33.1977C110.283 33.3749 110.277 33.4883 110.152 33.8071C110.027 34.1259 109.785 34.6336 109.736 35.3349C109.687 36.0363 109.828 36.8943 110.307 38.0185C110.786 39.1427 111.314 39.8461 111.851 40.2993C112.388 40.7525 112.91 40.9393 113.219 41.0801C113.529 41.2209 113.626 41.2986 113.732 41.5151C113.859 41.7756 114 42.3633 114 43.4985C113.989 44.6336 113.864 45.2045 113.723 45.4922C113.621 45.7016 113.529 45.7776 113.219 45.9184C112.91 46.0593 112.388 46.246 111.851 46.6992C111.314 47.1524 110.786 47.8558 110.307 48.98C109.828 50.1041 109.687 50.9637 109.736 51.665C109.785 52.3664 110.027 52.8741 110.152 53.1928C110.242 53.4227 110.303 53.5641 110.224 53.8022C110.12 54.1124 109.843 54.5255 109.066 55.2861C108.289 56.0468 107.845 56.321 107.561 56.4096C107.375 56.4675 107.264 56.4574 106.945 56.3276C106.627 56.1978 106.125 55.9504 105.423 55.8896C104.722 55.829 103.852 55.9523 102.716 56.4096C101.58 56.8671 100.865 57.3811 100.402 57.9111C99.9391 58.4411 99.7533 58.9646 99.6152 59.2778C99.4772 59.5911 99.4012 59.6821 99.2344 59.7656C98.975 59.8954 98.4461 60.0061 97.3564 59.997C96.2667 59.9885 95.7628 59.8748 95.4917 59.7334C95.3227 59.6452 95.2524 59.561 95.1196 59.2456C94.9869 58.93 94.8042 58.3947 94.3506 57.8569C93.897 57.3191 93.1921 56.7999 92.0639 56.3232C90.9358 55.8465 90.0697 55.7046 89.3672 55.7534C88.6647 55.8022 88.1597 56.0436 87.8393 56.1679C87.6276 56.2501 87.4607 56.3194 87.2197 56.2397C86.9788 56.1603 86.4937 55.8621 85.73 55.0884C84.9662 54.3146 84.6757 53.8278 84.6006 53.5884C84.5413 53.3993 84.5598 53.2956 84.6899 52.979C84.82 52.6624 85.0653 52.1618 85.1264 51.4614C85.1877 50.761 85.0601 49.8924 84.6006 48.7602C84.141 47.628 83.6278 46.9176 83.0947 46.4575C82.5617 45.9974 82.0341 45.8113 81.7163 45.6767C81.3985 45.5421 81.3127 45.4789 81.2285 45.3164C81.1196 45.1061 80.9936 44.5699 81.0029 43.5C80.9944 42.43 81.1194 41.8954 81.2285 41.685C81.3144 41.5192 81.3986 41.4594 81.7163 41.3247C82.0341 41.19 82.5617 41.0041 83.0947 40.5439C83.6278 40.0838 84.141 39.3734 84.6006 38.2412C85.0601 37.109 85.1876 36.2448 85.1264 35.5444C85.0652 34.844 84.8201 34.339 84.6899 34.0224C84.6012 33.8064 84.5255 33.6525 84.6006 33.4131C84.6757 33.1735 84.9662 32.6868 85.73 31.9131C86.4937 31.1393 86.9787 30.8412 87.2197 30.7617C87.4607 30.682 87.6326 30.7533 87.8393 30.8335C88.1597 30.9579 88.6647 31.1992 89.3672 31.248C90.0697 31.2968 90.9358 31.1547 92.0639 30.6782C93.1921 30.2015 93.897 29.6823 94.3506 29.1445C94.8042 28.6067 94.9869 28.0758 95.1196 27.7602C95.2137 27.5366 95.267 27.3853 95.4917 27.268C95.7502 27.1331 96.2667 27.0123 97.3564 27.0029ZM97.4399 31.5014C94.1583 31.5197 91.0441 32.8895 88.7988 35.2573C88.6866 35.2488 88.5732 35.2458 88.459 35.2514C88.3099 35.2628 88.159 35.2879 88.0093 35.3276C86.7702 35.6557 85.926 36.9601 86.3716 38.228L86.518 38.6572C84.3408 43.5992 85.7376 49.4321 89.9707 52.8428C94.3181 56.3455 100.518 56.3857 104.909 52.938C109.224 49.5502 110.681 43.6691 108.48 38.6704L108.628 38.228C109.074 36.9601 108.23 35.6557 106.991 35.3276C106.841 35.2879 106.69 35.2622 106.541 35.2514C106.423 35.2429 106.324 35.2386 106.208 35.247C103.935 32.8489 100.761 31.4838 97.4399 31.5014ZM106.248 36.7514C106.357 36.7366 106.476 36.7442 106.603 36.7778C107.068 36.9011 107.351 37.3518 107.218 37.73L105.059 43.8764L101.42 48.271C101.309 48.4051 101.249 48.5733 101.249 48.747V53.3012C98.8347 54.2252 96.1627 54.2244 93.7514 53.3012V48.747C93.7511 48.5733 93.6909 48.405 93.5801 48.271L89.9414 43.8764L87.7822 37.73C87.6493 37.3518 87.9319 36.9011 88.3974 36.7778C88.5242 36.7444 88.6424 36.7377 88.7519 36.7529C89.0803 36.797 89.325 37.0455 89.4521 37.4282L90.8393 40.7871C90.8765 40.8781 90.9301 40.9602 90.999 41.0303L94.7475 44.7788C94.8881 44.9202 95.0797 45 95.2793 45H99.7207C99.9202 44.9998 100.112 44.9202 100.252 44.7788L104.001 41.0302C104.07 40.9602 104.124 40.8781 104.161 40.7871L105.548 37.4282C105.675 37.0455 105.92 36.7959 106.248 36.7514ZM97.5029 37.5C99.1483 37.5 100.499 38.8326 100.499 40.5014C100.499 42.1702 99.1523 43.4985 97.5029 43.4985C95.8536 43.4985 94.4971 42.1702 94.4971 40.5014C94.4971 38.8326 95.8575 37.5 97.5029 37.5ZM99.0014 46.5C98.0234 46.5227 98.0234 47.9783 99.0014 48H99.7485C100.771 48.0227 100.771 46.4773 99.7485 46.5H99.0014ZM111.746 58.5C111.331 58.5015 110.997 58.8386 110.999 59.2529V69H109.504V62.2514C109.506 61.8367 109.171 61.4993 108.756 61.4985H104.25C103.836 61.5002 103.501 61.8372 103.503 62.2514V69H102.007V65.2514C102.009 64.8349 101.671 64.4969 101.254 64.4985H96.7471C96.3329 64.5002 95.9984 64.8372 96 65.2514V69H95.2412C94.2187 68.9773 94.2187 70.5227 95.2412 70.5H117.741C118.762 70.5 118.743 69 117.741 69H117V59.2529C117.002 58.8386 116.667 58.5014 116.253 58.5H111.746Z" fill="#FFB200"/>
</svg>
