<svg width="33" height="32" viewBox="0 0 33 32" fill="none" xmlns="http://www.w3.org/2000/svg">
<path d="M16.007 28.0546C12.727 28.0546 12.3403 28.0373 11.0603 27.9813C10.0621 27.9485 9.07688 27.7455 8.14696 27.3813C6.53804 26.7551 5.26581 25.4825 4.64029 23.8733C4.29004 22.9399 4.10112 21.9539 4.08162 20.9573C4.00696 19.6799 4.00696 19.2613 4.00696 16.0066C4.00696 12.7173 4.02429 12.3333 4.08162 11.0599C4.10154 10.0646 4.29045 9.07994 4.64029 8.14792C5.26513 6.53663 6.53942 5.26283 8.15096 4.63859C9.08249 4.28687 10.0674 4.09746 11.063 4.07859C12.3363 4.00659 12.755 4.00659 16.007 4.00659C19.3137 4.00659 19.6937 4.02392 20.9537 4.07859C21.9517 4.09762 22.9393 4.28701 23.8737 4.63859C25.4848 5.26354 26.7588 6.5371 27.3844 8.14792C27.7405 9.09352 27.9304 10.0936 27.9457 11.1039C28.0204 12.3813 28.0204 12.7986 28.0204 16.0519C28.0204 19.3053 28.0017 19.7319 27.9457 20.9946C27.9258 21.9922 27.7364 22.9791 27.3857 23.9133C26.7585 25.5235 25.4844 26.7967 23.8737 27.4226C22.9406 27.7722 21.9552 27.9611 20.959 27.9813C19.6857 28.0546 19.2684 28.0546 16.007 28.0546ZM15.9617 6.11726C12.7003 6.11726 12.3616 6.13326 11.0883 6.19059C10.3283 6.20067 9.5756 6.34092 8.86296 6.60526C7.81064 7.00794 6.97793 7.83726 6.57096 8.88792C6.30458 9.60832 6.1643 10.3692 6.15629 11.1373C6.08562 12.4293 6.08562 12.7679 6.08562 16.0066C6.08562 19.2066 6.09762 19.5946 6.15629 20.8786C6.16824 21.6389 6.30842 22.3917 6.57096 23.1053C6.97853 24.1553 7.81109 24.9839 8.86296 25.3866C9.57512 25.6527 10.3281 25.793 11.0883 25.8013C12.379 25.8759 12.719 25.8759 15.9617 25.8759C19.2324 25.8759 19.571 25.8599 20.8337 25.8013C21.5942 25.7921 22.3474 25.6518 23.0604 25.3866C24.1062 24.9805 24.9336 24.1537 25.3404 23.1079C25.6062 22.387 25.7464 21.6257 25.755 20.8573H25.7697C25.827 19.5826 25.827 19.2426 25.827 15.9853C25.827 12.7279 25.8124 12.3853 25.755 11.1119C25.743 10.3525 25.6028 9.60062 25.3404 8.88792C24.9345 7.8407 24.107 7.01232 23.0604 6.60526C22.3476 6.33959 21.5942 6.1993 20.8337 6.19059C19.5444 6.11726 19.207 6.11726 15.9617 6.11726ZM16.007 22.1653C13.5136 22.1669 11.2649 20.6662 10.3095 18.3633C9.35404 16.0602 9.88017 13.4083 11.6425 11.6446C13.4048 9.88072 16.0561 9.3523 18.36 10.3057C20.6638 11.2591 22.1664 13.5066 22.167 15.9999C22.1633 19.4014 19.4084 22.1586 16.007 22.1653ZM16.007 11.9973C13.7978 11.9973 12.007 13.7882 12.007 15.9973C12.007 18.2065 13.7978 19.9973 16.007 19.9973C18.2161 19.9973 20.007 18.2065 20.007 15.9973C20.0018 13.7902 18.214 12.0024 16.007 11.9973ZM22.407 11.0466C21.6142 11.0437 20.9736 10.3994 20.975 9.6066C20.9765 8.81383 21.6196 8.17194 22.4124 8.17194C23.205 8.17194 23.8481 8.81382 23.8497 9.60659C23.85 9.98908 23.698 10.356 23.4273 10.6262C23.1566 10.8964 22.7894 11.0477 22.407 11.0466Z" fill="white" fill-opacity="0.8"/>
</svg>
