<svg width="25" height="24" viewBox="0 0 25 24" fill="none" xmlns="http://www.w3.org/2000/svg">
<path d="M13.3377 24H8.00439V8H13.3377V10.6667C14.4745 9.22033 16.1985 8.35809 18.0377 8.316C21.3452 8.33436 24.014 11.0259 24.0044 14.3333V24H18.6711V15C18.4577 13.5101 17.1801 12.4048 15.6751 12.408C15.0168 12.4288 14.3953 12.7171 13.9543 13.2061C13.5132 13.6953 13.2905 14.3431 13.3377 15V24ZM5.33773 24H0.00439453V8H5.33773V24ZM2.67106 5.33333C1.1983 5.33333 0.00439453 4.13943 0.00439453 2.66667C0.00439453 1.19391 1.1983 0 2.67106 0C4.14382 0 5.33773 1.19391 5.33773 2.66667C5.33773 3.37391 5.05678 4.05219 4.55667 4.55228C4.05658 5.05239 3.3783 5.33333 2.67106 5.33333Z" fill="white" fill-opacity="0.8"/>
</svg>
