<svg width="21" height="30" viewBox="0 0 21 30" fill="none" xmlns="http://www.w3.org/2000/svg">
<path d="M20.1753 7.46689C20.0721 7.06655 19.8621 6.64021 19.7069 6.26687C17.8492 1.65343 13.7901 6.10352e-05 10.5127 6.10352e-05C6.12531 6.10352e-05 1.29305 3.04013 0.647888 9.3066V10.587C0.647888 10.6403 0.66563 11.1203 0.691114 11.3603C1.05273 14.3467 3.33305 17.5204 5.03627 20.5068C6.86853 23.7066 8.76982 26.854 10.654 30.0001C11.8153 27.947 12.9727 25.867 14.1079 23.8669C14.4172 23.2799 14.776 22.6932 15.0856 22.1332C15.2921 21.7602 15.6863 21.3872 15.8666 21.0402C17.6985 17.5745 20.6479 14.0804 20.6479 10.6403V9.22693C20.6479 8.85392 20.2005 7.54723 20.1753 7.46689ZM10.593 13.8937C9.30337 13.8937 7.89176 13.2274 7.19498 11.387C7.09111 11.094 7.0995 10.507 7.0995 10.4533V9.62661C7.0995 7.28056 9.02724 6.21353 10.7043 6.21353C12.7689 6.21353 14.366 7.92057 14.366 10.054C14.366 12.1873 12.6576 13.8937 10.593 13.8937Z" fill="white" fill-opacity="0.9"/>
</svg>
