<svg width="231" height="44" viewBox="0 0 231 44" fill="none" xmlns="http://www.w3.org/2000/svg">
<path d="M26.3352 21.9091C26.3352 24.7642 25.794 27.1932 24.7116 29.196C23.6378 31.1989 22.1719 32.7287 20.3139 33.7855C18.4645 34.8338 16.3849 35.358 14.0753 35.358C11.7486 35.358 9.66051 34.8295 7.81108 33.7727C5.96165 32.7159 4.5 31.1861 3.42614 29.1832C2.35227 27.1804 1.81534 24.7557 1.81534 21.9091C1.81534 19.054 2.35227 16.625 3.42614 14.6222C4.5 12.6193 5.96165 11.0937 7.81108 10.0455C9.66051 8.98864 11.7486 8.46023 14.0753 8.46023C16.3849 8.46023 18.4645 8.98864 20.3139 10.0455C22.1719 11.0937 23.6378 12.6193 24.7116 14.6222C25.794 16.625 26.3352 19.054 26.3352 21.9091ZM20.723 21.9091C20.723 20.0597 20.446 18.5 19.892 17.2301C19.3466 15.9602 18.5753 14.9972 17.5781 14.3409C16.581 13.6847 15.4134 13.3565 14.0753 13.3565C12.7372 13.3565 11.5696 13.6847 10.5724 14.3409C9.57528 14.9972 8.79972 15.9602 8.24574 17.2301C7.70028 18.5 7.42756 20.0597 7.42756 21.9091C7.42756 23.7585 7.70028 25.3182 8.24574 26.5881C8.79972 27.858 9.57528 28.821 10.5724 29.4773C11.5696 30.1335 12.7372 30.4616 14.0753 30.4616C15.4134 30.4616 16.581 30.1335 17.5781 29.4773C18.5753 28.821 19.3466 27.858 19.892 26.5881C20.446 25.3182 20.723 23.7585 20.723 21.9091ZM30.4357 35V8.81818H35.9712V20.3622H36.3164L45.7383 8.81818H52.3732L42.6573 20.5412L52.4883 35H45.8661L38.6942 24.2358L35.9712 27.5597V35H30.4357ZM55.256 35V8.81818H72.8981V13.3821H60.7915V19.6207H71.9904V24.1847H60.7915V30.4361H72.9492V35H55.256ZM81.8118 35H75.88L84.9183 8.81818H92.0518L101.077 35H95.1456L88.5874 14.8011H88.3828L81.8118 35ZM81.4411 24.7088H95.4524V29.0298H81.4411V24.7088ZM126.128 8.81818V35H121.347L109.956 18.5213H109.764V35H104.229V8.81818H109.087L120.388 25.2841H120.618V8.81818H126.128Z" fill="white" fill-opacity="0.9"/>
<path d="M131.001 13.3821V8.81818H152.503V13.3821H144.488V35H139.016V13.3821H131.001ZM156.045 35V8.81818H173.687V13.3821H161.58V19.6207H172.779V24.1847H161.58V30.4361H173.738V35H156.045ZM201.188 17.9844H195.589C195.487 17.2599 195.278 16.6165 194.963 16.054C194.647 15.483 194.242 14.9972 193.748 14.5966C193.254 14.196 192.683 13.8892 192.035 13.6761C191.396 13.4631 190.701 13.3565 189.951 13.3565C188.596 13.3565 187.416 13.6932 186.41 14.3665C185.404 15.0312 184.625 16.0028 184.071 17.2812C183.517 18.5511 183.24 20.0937 183.24 21.9091C183.24 23.7756 183.517 25.3437 184.071 26.6136C184.633 27.8835 185.417 28.8423 186.423 29.4901C187.428 30.1378 188.592 30.4616 189.913 30.4616C190.654 30.4616 191.34 30.3636 191.971 30.1676C192.61 29.9716 193.177 29.6861 193.671 29.3111C194.166 28.9276 194.575 28.4631 194.899 27.9176C195.231 27.3722 195.461 26.75 195.589 26.0511L201.188 26.0767C201.044 27.2784 200.681 28.4375 200.102 29.554C199.531 30.6619 198.759 31.6548 197.788 32.5327C196.825 33.402 195.674 34.0923 194.336 34.6037C193.007 35.1065 191.502 35.358 189.823 35.358C187.488 35.358 185.4 34.8295 183.559 33.7727C181.727 32.7159 180.278 31.1861 179.213 29.1832C178.156 27.1804 177.627 24.7557 177.627 21.9091C177.627 19.054 178.164 16.625 179.238 14.6222C180.312 12.6193 181.769 11.0937 183.61 10.0455C185.451 8.98864 187.522 8.46023 189.823 8.46023C191.34 8.46023 192.747 8.67329 194.042 9.09943C195.346 9.52557 196.501 10.1477 197.507 10.9659C198.512 11.7756 199.33 12.7685 199.961 13.9446C200.6 15.1207 201.009 16.4673 201.188 17.9844ZM205.158 35V8.81818H210.693V19.6207H221.931V8.81818H227.453V35H221.931V24.1847H210.693V35H205.158Z" fill="white" fill-opacity="0.4"/>
</svg>
