<svg width="856" height="600" viewBox="0 0 856 600" fill="none" xmlns="http://www.w3.org/2000/svg">
<g clip-path="url(#clip0_9_25)">
<mask id="mask0_9_25" style="mask-type:luminance" maskUnits="userSpaceOnUse" x="-44" y="0" width="900" height="600">
<path d="M-44 0H856V600H-44V0Z" fill="white"/>
</mask>
<g mask="url(#mask0_9_25)">
<path d="M567.556 130.965H167.104C148.31 130.965 133.075 146.2 133.075 164.994V411.216C133.075 430.01 148.31 445.245 167.104 445.245H567.556C586.35 445.245 601.585 430.01 601.585 411.216V164.994C601.585 146.2 586.35 130.965 567.556 130.965Z" fill="#F8FFFC" fill-opacity="0.1" stroke="#DEDEDE" stroke-opacity="0.2" stroke-width="2.959"/>
<path d="M169.84 163.341C173.649 163.341 176.736 160.254 176.736 156.445C176.736 152.636 173.649 149.549 169.84 149.549C166.031 149.549 162.944 152.636 162.944 156.445C162.944 160.254 166.031 163.341 169.84 163.341Z" fill="#DEDEDE" fill-opacity="0.2"/>
<path d="M193.664 163.341C197.473 163.341 200.56 160.254 200.56 156.445C200.56 152.636 197.473 149.549 193.664 149.549C189.856 149.549 186.768 152.636 186.768 156.445C186.768 160.254 189.856 163.341 193.664 163.341Z" fill="#DEDEDE" fill-opacity="0.2"/>
<path d="M217.488 163.341C221.297 163.341 224.384 160.254 224.384 156.445C224.384 152.636 221.297 149.549 217.488 149.549C213.679 149.549 210.592 152.636 210.592 156.445C210.592 160.254 213.679 163.341 217.488 163.341Z" fill="#DEDEDE" fill-opacity="0.2"/>
<path d="M693.877 276.111C688.371 216.562 589.303 217.636 589.303 217.636C589.303 217.636 506.827 305.822 487.458 304.896C468.089 303.969 543.254 215.722 543.254 215.722C507.142 205.783 405.706 234.512 405.706 234.512C405.706 234.512 391.429 351.651 372.883 345.985C354.336 340.319 390.816 242.904 390.816 242.904C353.42 247.385 313.029 283.085 313.029 283.085C259.808 343.4 340.008 408.631 340.008 408.631C340.008 408.631 334.186 449.12 301.262 490.993C301.262 490.993 294.167 498.548 285.935 512.059L295.622 513.746C296.833 511.337 298.147 508.982 299.561 506.687C299.569 506.668 299.573 506.658 299.59 506.643C299.616 506.609 299.628 506.58 299.653 506.546C300.573 505.166 301.907 503.196 303.546 500.814L303.55 500.804L303.554 500.795C307.52 495.509 310.272 491.58 312.068 488.714L312.08 488.685C324.117 472.031 341.018 450.553 350.406 447.068C350.406 447.068 349.594 445.374 349.101 442.265C349.52 443.796 349.944 445.396 350.406 447.068C360.807 485.497 442.716 505.849 490.572 504.408C538.428 502.967 520.557 486.431 499.353 460.951C478.148 435.471 425.049 431.977 411.095 421.003C397.14 410.03 421.088 405.655 451.488 413.38C481.875 421.112 491.929 454.594 540.862 467.992C589.795 481.39 643.998 394.381 643.998 394.381C607.782 399.072 549.467 369.386 549.158 357.131C548.852 344.867 639.878 361.925 654.708 360.844C669.56 359.762 699.383 335.66 693.877 276.111Z" fill="url(#paint0_linear_9_25)" fill-opacity="0.2"/>
<path d="M185.833 341.689C199.13 320.164 236.463 339.221 236.463 339.221C236.463 339.221 251.11 388.16 258.623 391.455C266.136 394.75 254.27 347.165 254.27 347.165C269.823 350.197 302.847 380.178 302.847 380.178C302.847 380.178 286.204 427.248 294.298 428.593C302.391 429.937 306.909 386.161 306.909 386.161C320.234 394.899 328.817 416.029 328.817 416.029C337.626 448.901 294.96 458.517 294.96 458.517C294.96 458.517 289.543 474.954 294.135 497.017C294.135 497.017 295.401 501.215 295.976 507.884L291.988 506.699C291.982 505.559 291.928 504.419 291.825 503.283C291.825 503.274 291.826 503.27 291.822 503.261C291.819 503.243 291.82 503.23 291.816 503.212C291.727 502.517 291.593 501.519 291.42 500.308L291.421 500.303V500.299C290.913 497.549 290.61 495.543 290.47 494.119L290.471 494.106C289.045 485.53 286.685 474.211 283.784 471.123C283.784 471.123 284.411 470.634 285.183 469.548C284.736 470.05 284.274 470.576 283.784 471.123C272.609 483.725 237.744 476.016 219.883 466.46C202.022 456.905 211.907 454.004 224.737 448.342C237.568 442.68 258.344 451.353 265.697 449.822C273.05 448.291 264.801 442.126 251.828 439.329C238.859 436.538 228.747 447.332 207.685 443.196C186.623 439.06 182.466 395.89 182.466 395.89C195.305 404.485 222.988 404.215 225.412 399.631C227.837 395.042 190.137 384.368 184.722 381.167C179.299 377.961 172.536 363.215 185.833 341.689Z" fill="url(#paint1_linear_9_25)" fill-opacity="0.2"/>
<path d="M386.727 304.039C390.965 310.687 402.036 318.434 409.89 318.328C436.641 317.838 445.448 299.615 448.335 292.98C447.792 292.848 446.879 292.742 446.23 292.662C441.303 291.947 436.271 287.074 434.801 281.578C432.907 274.426 430.576 260.441 430.854 251.555L397.017 270.281C397.07 272.85 397.242 275.658 397.48 278.492C397.653 280.214 397.825 281.909 398.023 283.551C398.209 285.127 398.421 286.623 398.619 288.001C399.242 292.636 397.176 297.231 393.269 299.787L386.727 304.039Z" fill="#F8AE9D"/>
<path d="M383.814 231.199C385.642 235.994 384.874 241.437 383.019 246.218C381.708 249.595 378.795 246.615 375.166 246.681C369.551 246.774 365.167 240.933 361.777 225.452C359.618 214.089 359.075 208.328 359.512 207.229C361.062 203.295 366.174 201.19 370.385 200.819" fill="#376B58"/>
<g filter="url(#filter0_d_9_25)">
<path d="M375.271 197.15C366.424 207.811 363.206 237.808 370.676 258.706C375.986 273.565 382.158 283.154 389.362 282.849C400.301 282.386 421.504 273.393 428.404 265.884C440.84 252.363 437.224 225.849 434.655 209.162C432.324 193.999 425.225 174.305 406.168 178.053C393.64 180.503 383.204 187.575 375.271 197.15Z" fill="#F8AE9D"/>
</g>
<g filter="url(#filter1_i_9_25)">
<path d="M425.323 208.926C423.361 211.447 419.902 212.003 417.052 212.501C413.221 213.171 411.326 214.567 409.337 218.313C408.078 220.705 406.819 223.326 404.566 224.622C402.734 225.68 402.804 222.978 402.509 220.884C402.482 220.701 402.444 220.52 402.397 220.342C401.952 218.671 400.172 218.958 399.648 220.606C399.171 222.087 398.15 223.34 396.851 224.038C396.639 224.152 396.414 224.252 396.188 224.209C395.883 224.167 395.645 223.882 395.446 223.625C395.029 223.087 394.614 222.404 394.186 221.68C392.779 219.305 390.124 220.159 388.553 222.429C387.573 223.839 386.406 225.292 384.802 225.619C384.285 225.733 383.636 225.648 383.397 225.149C383.092 224.537 383.569 223.924 383.49 223.298C383.424 222.714 383.172 222.457 382.893 221.959C381.799 220.021 379.304 219.952 377.767 221.56C376.697 222.678 375.581 223.752 374.423 224.779C373.933 225.206 373.217 225.634 372.727 225.206C372.462 224.978 372.395 224.594 372.342 224.223C372.064 222.415 371.799 220.606 371.521 218.797C371.361 217.786 370.818 216.461 369.89 216.717C369.44 216.846 369.174 217.316 368.923 217.743C368.618 218.284 363.17 224.451 363.064 223.981C362.215 220.478 360.479 217.287 359.631 213.783C354.143 191.236 378.493 173.105 397.09 173.005C401.225 172.976 405.003 173.043 409.019 173.998C413.301 175.023 417.821 176.651 421.704 178.944C427.152 182.149 431.275 187.975 430.214 194.925" fill="#376B58"/>
</g>
<g filter="url(#filter2_ii_9_25)">
<path d="M416.565 201.19C413.863 204.249 413.148 208.553 412.897 212.619C412.526 218.751 413.029 225.121 415.863 230.564C416.671 232.113 417.267 239.781 418.512 239.357C418.909 239.225 418.843 233.279 419.889 230.074C421.505 225.107 428.948 223.214 432.298 226.352C437.649 231.345 434.51 237.411 432.735 241.185C431.676 243.463 429.994 246.019 429.702 248.429C429.345 251.515 429.239 262.759 431.252 265.381C432.934 267.579 434.722 256.958 436.245 254.866C447.515 239.278 458.322 199.587 439.079 190.979C436.152 189.668 427.12 188.992 424.379 190.661M345.314 516.702C344.201 516.888 343.076 517.047 341.91 517.087C335.712 517.285 329.726 515.921 323.674 514.888C318.35 513.974 316.907 513.471 317.013 507.048C317.94 456.18 325.422 405.444 338.878 356.377C340.93 348.881 343.168 341.332 347.102 334.631C353.816 323.202 369.232 313.336 381.058 307.8C382.727 307.018 389.64 311.415 391.322 310.66C392.792 309.998 394.09 308.965 395.573 308.316C399.917 306.422 402.83 310.382 406.459 312.038C408.34 312.885 410.432 313.428 412.498 313.336C414.18 313.269 415.703 312.25 417.239 313.044C424.152 316.62 441.316 290.08 441.316 290.08L448.772 297.827L470.531 320.619L524.909 395.538C524.909 395.538 534.775 456.935 541.556 497.182C542.734 504.121 547.396 519.126 548.323 524.384C548.125 523.245 501.905 522.94 499.415 522.94H405.214C399.93 522.94 385.72 525.178 382.012 521.298C377.443 516.53 372.158 494.652 371.88 488.52C370.966 467.9 372.384 447.439 372.662 426.7C372.542 435.136 370.119 442.764 369.086 451.028C367.748 461.663 365.841 472.284 364.12 482.865C362.742 491.368 361.418 499.896 360.358 508.452C359.882 512.306 360.491 514.597 357.233 516.107C354.492 517.365 348.519 516.159 345.314 516.702Z" fill="#376B58"/>
</g>
<path d="M368.264 499.088C370.78 498.055 386.315 494.202 393.32 492.745C396.989 491.99 413.623 487.673 417.476 487.673C421.33 487.673 426.575 493.182 426.575 493.182L425.184 512.133C421.476 511.763 416.51 513.683 413.848 514.054C411.186 514.424 402.14 514.477 396.578 511.683C396.26 511.524 395.969 511.352 395.678 511.18C393.44 513.166 390.632 515.1 387.52 515.259C387.52 515.259 385.083 515.007 385.321 514.027C385.427 513.55 387.043 511.087 388.659 508.677C386.275 511.1 382.381 515.034 377.892 515.259C377.892 515.259 375.455 515.007 375.693 514.027C375.826 513.444 378.157 509.961 380.037 507.193C380.011 507.22 379.971 507.233 379.958 507.26C377.984 508.995 373.296 514.981 367.747 515.259C367.747 515.259 365.31 515.007 365.549 514.027C365.628 513.67 366.555 512.2 367.681 510.491C366.038 511.753 364.278 512.853 362.423 513.776C356.424 516.742 353.007 514.491 353.007 513.776C352.994 513.047 365.747 500.121 368.264 499.088Z" fill="#F8AE9D"/>
<path d="M422.283 477.078C422.283 477.078 412.615 482.561 413.476 494.215C414.337 505.869 417.833 519.378 432.427 517.961C447.022 516.557 422.283 477.078 422.283 477.078Z" fill="#376B58"/>
<g filter="url(#filter3_i_9_25)">
<path d="M430.072 516.808C465.062 528.953 511.877 517.351 541.556 497.181C560.15 484.574 572.016 468.562 570.016 452.922C564.838 412.291 532.908 319.163 505.282 305.575C486.503 296.331 463.724 292.503 451.024 290.967C445.064 290.239 441.343 290.067 441.343 290.067L445.951 303.072L469.021 368.124C469.882 406.729 497.508 429.653 492.012 438.645C486.516 447.611 443.117 457.292 420.325 472.641C414.021 476.906 406.022 507.75 430.072 516.808Z" fill="#376B58"/>
</g>
<path d="M469.022 368.124C468.995 375.448 470.015 382.785 471.922 389.883C473.842 396.982 476.65 403.828 479.908 410.424C481.537 413.721 483.272 416.953 485.059 420.144C486.821 423.349 488.635 426.528 490.118 429.786C490.847 431.415 491.483 433.097 491.734 434.752C491.8 435.56 491.867 436.394 491.641 437.096C491.589 437.48 491.363 437.771 491.231 438.116C490.979 438.42 490.807 438.752 490.489 439.043C488.119 441.413 484.728 443.016 481.51 444.565C468.293 450.591 454.255 455.054 440.879 461.067C434.191 464.073 427.57 467.318 421.411 471.37L420.272 472.138C419.888 472.403 419.531 472.748 419.16 473.052C418.478 473.713 417.886 474.461 417.399 475.277C416.418 476.88 415.756 478.628 415.24 480.402C414.26 483.965 413.849 487.633 413.823 491.302C414.061 487.66 414.67 484.018 415.743 480.561C416.882 477.131 418.643 473.794 421.941 472.191C428.126 468.351 434.761 465.291 441.488 462.471C448.229 459.689 455.05 457.054 461.897 454.498C468.744 451.902 475.63 449.426 482.358 446.353C485.669 444.711 489.072 443.162 491.893 440.314C492.251 439.97 492.542 439.493 492.847 439.083C493.072 438.579 493.376 438.103 493.456 437.573C493.774 436.513 493.668 435.467 493.575 434.474C493.257 432.514 492.542 430.739 491.774 429.044C490.198 425.654 488.357 422.489 486.569 419.297C484.781 416.105 482.98 412.94 481.272 409.722C474.451 396.902 469.71 382.798 469.022 368.124Z" fill="#F8FFFC" fill-opacity="0.1"/>
<path d="M378.344 309.058C381.681 312.369 396.54 322.95 410.711 322.95C413.221 322.947 415.726 322.712 418.193 322.248C430.086 320.077 440.098 312.144 445.952 303.059C447.02 301.387 447.963 299.638 448.773 297.827C449.832 295.55 450.587 293.219 451.024 290.967C445.064 290.239 439.37 288.742 438.443 287.683C437.436 294.623 428.868 307.151 415.889 309.508C414.36 309.792 412.809 309.947 411.254 309.972H411.227C405.135 310.078 400.46 308.131 397.269 306.171C397.242 306.171 391.057 301.297 391.031 301.271L378.344 309.058Z" fill="#376B58"/>
<path d="M369.019 460.349C369.055 459.701 368.972 459.06 368.995 458.411C369.022 457.71 369.1 457.024 369.153 456.324L369.537 452.313C369.784 449.582 370.031 446.85 370.237 444.116C370.648 438.696 370.928 433.267 371.074 427.834C371.354 416.973 371.197 406.087 370.467 395.249C370.262 392.217 370.016 389.187 369.731 386.161C369.577 384.608 369.417 383.056 369.251 381.505C369.084 379.983 368.838 378.471 368.818 376.931C368.806 375.975 370.242 375.91 370.457 376.798C371.091 379.433 371.184 382.264 371.457 384.959C371.716 387.666 371.948 390.372 372.154 393.089C372.549 398.563 372.811 404.043 372.94 409.528C373.174 420.445 372.785 431.366 371.854 442.257C371.594 445.313 371.281 448.364 370.915 451.409C370.728 452.961 370.521 454.51 370.295 456.057C370.19 456.741 370.099 457.425 369.968 458.094C369.805 458.881 369.512 459.607 369.348 460.394C369.258 460.575 368.997 460.507 369.019 460.349Z" fill="#F8FFFC" fill-opacity="0.1"/>
<path d="M372.067 248.985C371.974 248.985 371.723 248.84 371.935 248.84C372.04 248.84 372.278 248.985 372.067 248.985Z" fill="#CC6144"/>
<path d="M164.171 357.791C169.212 366.695 166.819 380.189 166.819 380.189C166.819 380.189 152.395 376.22 147.354 367.315C142.313 358.41 141.991 349.063 146.631 346.431C151.278 343.796 159.13 348.886 164.171 357.791Z" fill="url(#paint2_linear_9_25)" fill-opacity="0.2"/>
<path d="M179.227 285.233C180.453 300.73 168.5 317.775 168.5 317.775C168.5 317.775 151.184 303.053 149.957 287.556C148.731 272.059 154.285 258.981 162.365 258.334C170.455 257.688 178 269.736 179.227 285.233Z" fill="url(#paint3_linear_9_25)" fill-opacity="0.2"/>
<path d="M261.571 313.732C269.693 320.164 272.591 333.732 272.591 333.732C272.591 333.732 257.549 335.506 249.427 329.075C241.306 322.643 237.441 313.999 240.79 309.761C244.146 305.519 253.45 307.301 261.571 313.732Z" fill="url(#paint4_linear_9_25)" fill-opacity="0.2"/>
<path d="M168.6 433.563V448.789L182.345 465.171H124.608C107.156 465.171 93 451.015 93 433.563C93 416.111 107.156 401.955 124.608 401.955H136.992C154.455 401.955 168.6 416.111 168.6 433.563Z" fill="#DEDEDE" fill-opacity="0.2"/>
<path d="M144.243 433.509C144.244 434.999 144.836 436.428 145.889 437.482C146.943 438.536 148.372 439.128 149.862 439.129C151.352 439.128 152.781 438.536 153.835 437.482C154.888 436.428 155.48 434.999 155.481 433.509C155.48 432.019 154.888 430.59 153.834 429.537C152.781 428.483 151.352 427.891 149.862 427.89C148.372 427.891 146.943 428.483 145.889 429.536C144.836 430.59 144.244 432.019 144.243 433.509ZM125.147 433.509C125.148 434.999 125.74 436.428 126.794 437.482C127.848 438.535 129.277 439.127 130.767 439.128C132.257 439.127 133.686 438.535 134.739 437.481C135.793 436.428 136.385 434.999 136.386 433.509C136.385 432.019 135.793 430.59 134.739 429.537C133.686 428.483 132.257 427.891 130.767 427.89C129.277 427.891 127.848 428.483 126.794 429.536C125.74 430.59 125.148 432.019 125.147 433.509ZM106.053 433.509C106.054 434.999 106.646 436.428 107.7 437.481C108.753 438.535 110.182 439.127 111.672 439.128C113.162 439.127 114.591 438.535 115.645 437.482C116.699 436.428 117.291 434.999 117.292 433.509C117.291 432.019 116.699 430.59 115.645 429.536C114.591 428.483 113.162 427.891 111.672 427.89C110.182 427.891 108.753 428.483 107.7 429.537C106.646 430.59 106.054 432.019 106.053 433.509Z" fill="white" fill-opacity="0.2"/>
<path d="M304.861 198.953L322.903 242.941C323.197 243.656 323.347 244.422 323.345 245.194C323.342 245.967 323.188 246.732 322.89 247.445C322.592 248.158 322.157 248.806 321.609 249.351C321.061 249.896 320.411 250.327 319.696 250.621L243.301 281.952C242.176 282.413 240.936 282.513 239.752 282.24C238.567 281.967 237.497 281.334 236.687 280.427C236.239 279.929 235.881 279.358 235.627 278.738L217.593 234.768C217.299 234.054 217.149 233.289 217.151 232.517C217.152 231.745 217.306 230.981 217.604 230.268C217.901 229.556 218.336 228.909 218.884 228.365C219.431 227.82 220.081 227.389 220.795 227.096L297.189 195.758C300.189 194.528 303.612 195.955 304.861 198.953Z" fill="#DEDEDE" fill-opacity="0.2"/>
<path d="M273.392 240.869L321.779 246.197C321.616 246.884 321.292 247.523 320.834 248.059C320.375 248.596 319.795 249.016 319.142 249.284L242.756 280.62C242.107 280.886 241.403 280.994 240.704 280.936C240.005 280.878 239.329 280.654 238.733 280.284L273.392 240.869Z" fill="#DEDEDE" fill-opacity="0.2" stroke="#F8FFFC" stroke-opacity="0.1" stroke-width="2.882"/>
<path d="M218.926 234.221C218.704 233.682 218.591 233.104 218.592 232.521C218.593 231.939 218.709 231.362 218.934 230.824C219.158 230.286 219.486 229.798 219.899 229.387C220.312 228.976 220.802 228.65 221.341 228.429H221.342L297.736 197.091C298.711 196.692 299.796 196.652 300.797 196.978C301.799 197.304 302.652 197.975 303.205 198.871L273.707 245.151L219.549 235.737L218.926 234.221Z" fill="#DEDEDE" fill-opacity="0.2" stroke="#F8FFFC" stroke-opacity="0.1" stroke-width="2.882"/>
<path d="M624.71 491.529C614.277 502.147 594.767 499.909 594.767 499.909C594.767 499.909 592.185 480.453 602.628 469.841C613.061 459.222 632.561 461.454 632.561 461.454C632.561 461.454 635.143 480.91 624.71 491.529Z" fill="url(#paint5_linear_9_25)" fill-opacity="0.2"/>
<path d="M102.445 198.006C105.727 204.018 114.645 205.482 114.645 205.482C114.645 205.482 118.235 197.195 114.948 191.184C111.666 185.171 102.754 183.706 102.754 183.706C102.754 183.706 99.163 191.993 102.445 198.006Z" fill="url(#paint6_linear_9_25)" fill-opacity="0.2"/>
<path d="M651.172 196.369C658.112 190.373 657.504 178.29 657.504 178.29C657.504 178.29 645.644 175.936 638.708 181.938C631.768 187.934 632.372 200.011 632.372 200.011C632.372 200.011 644.232 202.365 651.172 196.369Z" fill="url(#paint7_linear_9_25)" fill-opacity="0.2"/>
<path d="M628.96 151.218C631.082 145.116 626.455 137.958 626.455 137.958C626.455 137.958 618.39 140.699 616.273 146.804C614.151 152.907 618.773 160.062 618.773 160.062C618.773 160.062 626.838 157.321 628.96 151.218Z" fill="url(#paint8_linear_9_25)" fill-opacity="0.2"/>
<g filter="url(#filter4_ii_9_25)">
<path fill-rule="evenodd" clip-rule="evenodd" d="M677.26 401.858V351.57C677.26 350.358 676.778 349.196 675.922 348.339C675.065 347.482 673.903 347.001 672.691 347H599.577C598.365 347.001 597.203 347.482 596.346 348.339C595.489 349.196 595.008 350.358 595.007 351.57V408.812C595.007 414.01 600.472 417.395 605.126 415.079L620.553 407.404C621.511 406.927 622.566 406.676 623.636 406.671L672.714 406.428C673.922 406.421 675.077 405.936 675.929 405.08C676.781 404.224 677.259 403.066 677.26 401.858Z" fill="#2AC68D"/>
</g>
<path d="M635.492 376.06C635.408 376.144 635.341 376.244 635.295 376.355C635.249 376.465 635.226 376.583 635.226 376.702C635.226 376.821 635.249 376.939 635.295 377.05C635.34 377.16 635.407 377.26 635.492 377.344C635.576 377.429 635.676 377.496 635.786 377.541C635.896 377.587 636.014 377.611 636.134 377.611C636.253 377.611 636.371 377.587 636.481 377.542C636.591 377.496 636.692 377.429 636.776 377.345C636.946 377.175 637.042 376.944 637.042 376.703C637.042 376.462 636.947 376.231 636.776 376.06C636.606 375.89 636.375 375.794 636.134 375.794C635.893 375.794 635.662 375.89 635.492 376.06ZM651.846 376.06C651.762 376.144 651.695 376.245 651.649 376.355C651.603 376.465 651.58 376.583 651.58 376.703C651.579 376.822 651.603 376.94 651.649 377.05C651.694 377.161 651.761 377.261 651.846 377.345C651.93 377.43 652.03 377.497 652.14 377.543C652.251 377.588 652.369 377.612 652.488 377.612C652.608 377.612 652.726 377.589 652.836 377.543C652.946 377.497 653.047 377.43 653.131 377.346C653.302 377.176 653.397 376.944 653.397 376.703C653.398 376.462 653.302 376.231 653.131 376.06C652.961 375.89 652.73 375.794 652.489 375.794C652.248 375.794 652.017 375.89 651.846 376.06ZM619.136 376.06C619.052 376.144 618.985 376.244 618.939 376.355C618.893 376.465 618.87 376.583 618.87 376.702C618.87 376.821 618.893 376.939 618.939 377.05C618.984 377.16 619.051 377.26 619.135 377.344C619.22 377.429 619.32 377.496 619.43 377.541C619.54 377.587 619.658 377.611 619.778 377.611C619.897 377.611 620.015 377.587 620.125 377.542C620.235 377.496 620.336 377.429 620.42 377.345C620.59 377.175 620.686 376.944 620.686 376.703C620.686 376.462 620.591 376.231 620.42 376.06C620.25 375.89 620.019 375.794 619.778 375.794C619.537 375.794 619.306 375.89 619.136 376.06Z" stroke="white" stroke-opacity="0.5" stroke-width="9.041" stroke-linecap="round" stroke-linejoin="round"/>
<path d="M188.45 227.364L179.371 229.87C170.346 232.361 161.009 227.064 158.518 218.038C156.027 209.012 161.324 199.676 170.35 197.185C179.375 194.694 188.712 199.991 191.203 209.017L191.955 211.74C192.262 212.936 192.088 214.204 191.469 215.273C190.85 216.341 189.837 217.124 188.646 217.452C187.456 217.781 186.185 217.629 185.105 217.029C184.026 216.43 183.226 215.43 182.876 214.246L182.124 211.523M182.124 211.523C181.861 210.569 181.412 209.676 180.804 208.896C180.196 208.115 179.44 207.462 178.579 206.974C177.719 206.486 176.77 206.172 175.788 206.05C174.806 205.928 173.81 206.001 172.856 206.264C171.419 206.66 170.133 207.474 169.158 208.602C168.184 209.73 167.566 211.121 167.383 212.6C167.199 214.079 167.459 215.579 168.128 216.911C168.797 218.242 169.846 219.345 171.142 220.081C172.438 220.816 173.923 221.151 175.409 221.042C176.896 220.934 178.317 220.387 179.492 219.471C180.668 218.555 181.545 217.311 182.014 215.896C182.482 214.481 182.52 212.96 182.124 211.523Z" stroke="#DEDEDE" stroke-opacity="0.2" stroke-width="4.302" stroke-linecap="round" stroke-linejoin="round"/>
<path d="M589.308 294.811C597.35 289.297 598.137 276.459 598.137 276.459C598.137 276.459 585.885 272.569 577.846 278.09C569.805 283.604 569.014 296.435 569.014 296.435C569.014 296.435 581.267 300.326 589.308 294.811Z" fill="#DEDEDE" fill-opacity="0.2"/>
<path d="M601.616 205.674C609.684 205.674 616.225 212.215 616.225 220.283C616.225 228.351 609.684 234.892 601.616 234.892C593.548 234.892 587.007 228.351 587.007 220.283C587.007 212.215 593.548 205.674 601.616 205.674Z" fill="#DEDEDE" fill-opacity="0.2"/>
<path d="M649.68 297.272C654.579 297.272 658.55 301.243 658.55 306.142C658.55 311.041 654.579 315.012 649.68 315.012C644.781 315.012 640.81 311.041 640.81 306.142C640.81 301.243 644.781 297.272 649.68 297.272Z" fill="#DEDEDE" fill-opacity="0.2"/>
<path d="M664.289 459.346L651.245 446.824L664.289 434.303L677.332 446.824L664.289 459.346Z" stroke="#DEDEDE" stroke-opacity="0.2" stroke-width="5.308" stroke-linecap="round" stroke-linejoin="round"/>
<g filter="url(#filter5_ii_9_25)">
<path d="M389.713 524.122H226.696L177.652 402.175H340.429L389.713 524.122Z" fill="#2AC68D"/>
</g>
<path d="M224.784 519.375H440.06V524.123H226.697L224.784 519.375Z" fill="#2AC68D"/>
<path d="M262.628 462.841C260.537 455.498 264.753 449.545 272.03 449.545C279.307 449.545 286.89 455.498 288.981 462.841C291.072 470.184 286.856 476.138 279.579 476.138C272.302 476.138 264.719 470.184 262.628 462.841Z" fill="white" fill-opacity="0.4"/>
</g>
</g>
<defs>
<filter id="filter0_d_9_25" x="360.512" y="173.588" width="82.6892" height="117.268" filterUnits="userSpaceOnUse" color-interpolation-filters="sRGB">
<feFlood flood-opacity="0" result="BackgroundImageFix"/>
<feColorMatrix in="SourceAlpha" type="matrix" values="0 0 0 0 0 0 0 0 0 0 0 0 0 0 0 0 0 0 127 0" result="hardAlpha"/>
<feOffset dy="2"/>
<feGaussianBlur stdDeviation="3"/>
<feComposite in2="hardAlpha" operator="out"/>
<feColorMatrix type="matrix" values="0 0 0 0 0 0 0 0 0 0 0 0 0 0 0 0 0 0 0.25 0"/>
<feBlend mode="normal" in2="BackgroundImageFix" result="effect1_dropShadow_9_25"/>
<feBlend mode="normal" in="SourceGraphic" in2="effect1_dropShadow_9_25" result="shape"/>
</filter>
<filter id="filter1_i_9_25" x="358.844" y="173" width="71.5375" height="56.6638" filterUnits="userSpaceOnUse" color-interpolation-filters="sRGB">
<feFlood flood-opacity="0" result="BackgroundImageFix"/>
<feBlend mode="normal" in="SourceGraphic" in2="BackgroundImageFix" result="shape"/>
<feColorMatrix in="SourceAlpha" type="matrix" values="0 0 0 0 0 0 0 0 0 0 0 0 0 0 0 0 0 0 127 0" result="hardAlpha"/>
<feOffset dy="4"/>
<feGaussianBlur stdDeviation="2"/>
<feComposite in2="hardAlpha" operator="arithmetic" k2="-1" k3="1"/>
<feColorMatrix type="matrix" values="0 0 0 0 0 0 0 0 0 0 0 0 0 0 0 0 0 0 0.25 0"/>
<feBlend mode="normal" in2="shape" result="effect1_innerShadow_9_25"/>
</filter>
<filter id="filter2_ii_9_25" x="315.008" y="189.672" width="233.315" height="338.712" filterUnits="userSpaceOnUse" color-interpolation-filters="sRGB">
<feFlood flood-opacity="0" result="BackgroundImageFix"/>
<feBlend mode="normal" in="SourceGraphic" in2="BackgroundImageFix" result="shape"/>
<feColorMatrix in="SourceAlpha" type="matrix" values="0 0 0 0 0 0 0 0 0 0 0 0 0 0 0 0 0 0 127 0" result="hardAlpha"/>
<feOffset dy="4"/>
<feGaussianBlur stdDeviation="2"/>
<feComposite in2="hardAlpha" operator="arithmetic" k2="-1" k3="1"/>
<feColorMatrix type="matrix" values="0 0 0 0 0 0 0 0 0 0 0 0 0 0 0 0 0 0 0.25 0"/>
<feBlend mode="normal" in2="shape" result="effect1_innerShadow_9_25"/>
<feColorMatrix in="SourceAlpha" type="matrix" values="0 0 0 0 0 0 0 0 0 0 0 0 0 0 0 0 0 0 127 0" result="hardAlpha"/>
<feOffset dx="-2"/>
<feGaussianBlur stdDeviation="2"/>
<feComposite in2="hardAlpha" operator="arithmetic" k2="-1" k3="1"/>
<feColorMatrix type="matrix" values="0 0 0 0 0 0 0 0 0 0 0 0 0 0 0 0 0 0 0.25 0"/>
<feBlend mode="normal" in2="effect1_innerShadow_9_25" result="effect2_innerShadow_9_25"/>
</filter>
<filter id="filter3_i_9_25" x="411.806" y="288.067" width="158.429" height="233.691" filterUnits="userSpaceOnUse" color-interpolation-filters="sRGB">
<feFlood flood-opacity="0" result="BackgroundImageFix"/>
<feBlend mode="normal" in="SourceGraphic" in2="BackgroundImageFix" result="shape"/>
<feColorMatrix in="SourceAlpha" type="matrix" values="0 0 0 0 0 0 0 0 0 0 0 0 0 0 0 0 0 0 127 0" result="hardAlpha"/>
<feOffset dx="-2" dy="-2"/>
<feGaussianBlur stdDeviation="2"/>
<feComposite in2="hardAlpha" operator="arithmetic" k2="-1" k3="1"/>
<feColorMatrix type="matrix" values="0 0 0 0 0 0 0 0 0 0 0 0 0 0 0 0 0 0 0.25 0"/>
<feBlend mode="normal" in2="shape" result="effect1_innerShadow_9_25"/>
</filter>
<filter id="filter4_ii_9_25" x="591.007" y="343" width="94.253" height="80.8212" filterUnits="userSpaceOnUse" color-interpolation-filters="sRGB">
<feFlood flood-opacity="0" result="BackgroundImageFix"/>
<feBlend mode="normal" in="SourceGraphic" in2="BackgroundImageFix" result="shape"/>
<feColorMatrix in="SourceAlpha" type="matrix" values="0 0 0 0 0 0 0 0 0 0 0 0 0 0 0 0 0 0 127 0" result="hardAlpha"/>
<feOffset dx="8" dy="8"/>
<feGaussianBlur stdDeviation="4"/>
<feComposite in2="hardAlpha" operator="arithmetic" k2="-1" k3="1"/>
<feColorMatrix type="matrix" values="0 0 0 0 1 0 0 0 0 1 0 0 0 0 1 0 0 0 0.25 0"/>
<feBlend mode="normal" in2="shape" result="effect1_innerShadow_9_25"/>
<feColorMatrix in="SourceAlpha" type="matrix" values="0 0 0 0 0 0 0 0 0 0 0 0 0 0 0 0 0 0 127 0" result="hardAlpha"/>
<feOffset dx="-4" dy="-4"/>
<feGaussianBlur stdDeviation="3"/>
<feComposite in2="hardAlpha" operator="arithmetic" k2="-1" k3="1"/>
<feColorMatrix type="matrix" values="0 0 0 0 0 0 0 0 0 0 0 0 0 0 0 0 0 0 0.25 0"/>
<feBlend mode="normal" in2="effect1_innerShadow_9_25" result="effect2_innerShadow_9_25"/>
</filter>
<filter id="filter5_ii_9_25" x="171.652" y="402.175" width="226.061" height="129.947" filterUnits="userSpaceOnUse" color-interpolation-filters="sRGB">
<feFlood flood-opacity="0" result="BackgroundImageFix"/>
<feBlend mode="normal" in="SourceGraphic" in2="BackgroundImageFix" result="shape"/>
<feColorMatrix in="SourceAlpha" type="matrix" values="0 0 0 0 0 0 0 0 0 0 0 0 0 0 0 0 0 0 127 0" result="hardAlpha"/>
<feOffset dx="8" dy="8"/>
<feGaussianBlur stdDeviation="4"/>
<feComposite in2="hardAlpha" operator="arithmetic" k2="-1" k3="1"/>
<feColorMatrix type="matrix" values="0 0 0 0 1 0 0 0 0 1 0 0 0 0 1 0 0 0 0.25 0"/>
<feBlend mode="normal" in2="shape" result="effect1_innerShadow_9_25"/>
<feColorMatrix in="SourceAlpha" type="matrix" values="0 0 0 0 0 0 0 0 0 0 0 0 0 0 0 0 0 0 127 0" result="hardAlpha"/>
<feOffset dx="-10"/>
<feGaussianBlur stdDeviation="3"/>
<feComposite in2="hardAlpha" operator="arithmetic" k2="-1" k3="1"/>
<feColorMatrix type="matrix" values="0 0 0 0 0 0 0 0 0 0 0 0 0 0 0 0 0 0 0.25 0"/>
<feBlend mode="normal" in2="effect1_innerShadow_9_25" result="effect2_innerShadow_9_25"/>
</filter>
<linearGradient id="paint0_linear_9_25" x1="300.279" y1="762.062" x2="720.926" y2="-216.205" gradientUnits="userSpaceOnUse">
<stop stop-color="white"/>
<stop offset="1" stop-color="#EEEEEE"/>
</linearGradient>
<linearGradient id="paint1_linear_9_25" x1="243.476" y1="599.905" x2="268.267" y2="150.067" gradientUnits="userSpaceOnUse">
<stop stop-color="white"/>
<stop offset="1" stop-color="#EEEEEE"/>
</linearGradient>
<linearGradient id="paint2_linear_9_25" x1="176.53" y1="357.078" x2="124.284" y2="371.429" gradientUnits="userSpaceOnUse">
<stop stop-color="white"/>
<stop offset="1" stop-color="#EEEEEE"/>
</linearGradient>
<linearGradient id="paint3_linear_9_25" x1="196.702" y1="292.184" x2="115.55" y2="278.415" gradientUnits="userSpaceOnUse">
<stop stop-color="white"/>
<stop offset="1" stop-color="#EEEEEE"/>
</linearGradient>
<linearGradient id="paint4_linear_9_25" x1="272.893" y1="308.354" x2="229.356" y2="341.725" gradientUnits="userSpaceOnUse">
<stop stop-color="white"/>
<stop offset="1" stop-color="#EEEEEE"/>
</linearGradient>
<linearGradient id="paint5_linear_9_25" x1="583.084" y1="527.8" x2="658.509" y2="409.564" gradientUnits="userSpaceOnUse">
<stop stop-color="white"/>
<stop offset="1" stop-color="#EEEEEE"/>
</linearGradient>
<linearGradient id="paint6_linear_9_25" x1="116.307" y1="219.298" x2="97.798" y2="157.473" gradientUnits="userSpaceOnUse">
<stop stop-color="white"/>
<stop offset="1" stop-color="#EEEEEE"/>
</linearGradient>
<linearGradient id="paint7_linear_9_25" x1="675.113" y1="172.205" x2="599.446" y2="213.92" gradientUnits="userSpaceOnUse">
<stop stop-color="white"/>
<stop offset="1" stop-color="#EEEEEE"/>
</linearGradient>
<linearGradient id="paint8_linear_9_25" x1="635.054" y1="128.044" x2="603.585" y2="180.145" gradientUnits="userSpaceOnUse">
<stop stop-color="white"/>
<stop offset="1" stop-color="#EEEEEE"/>
</linearGradient>
<clipPath id="clip0_9_25">
<rect width="900" height="600" fill="white" transform="translate(-44)"/>
</clipPath>
</defs>
</svg>
