<svg width="25" height="24" viewBox="0 0 25 24" fill="none" xmlns="http://www.w3.org/2000/svg">
<path d="M23.8893 20.1739L18.602 14.8867C19.5226 13.3961 20.0791 11.6573 20.0791 9.7771C20.0791 4.37717 15.7019 6.10352e-05 10.3018 6.10352e-05C4.90166 6.10352e-05 0.524414 4.37717 0.524414 9.7771C0.524414 15.177 4.90166 19.5541 10.3018 19.5541C12.182 19.5541 13.9209 18.9976 15.4101 18.0786L20.6989 23.3657C21.1245 23.7772 21.6948 24.005 22.2868 24C22.8789 23.9949 23.4452 23.7574 23.8638 23.3387C24.2823 22.92 24.5196 22.3535 24.5243 21.7615C24.5291 21.1695 24.301 20.5993 23.8893 20.1739ZM10.3018 16.5458C6.56381 16.5458 3.53283 13.5149 3.53283 9.7771C3.53283 6.03926 6.56381 3.00838 10.3018 3.00838C14.0397 3.00838 17.0707 6.03926 17.0707 9.7771C17.0707 13.5149 14.0397 16.5458 10.3018 16.5458Z" fill="white" fill-opacity="0.9"/>
</svg>
