<svg width="28" height="23" viewBox="0 0 28 23" fill="none" xmlns="http://www.w3.org/2000/svg">
<path d="M24.6644 3.57227C25.8596 2.85772 26.754 1.73259 27.1804 0.406937C26.0573 1.07334 24.8284 1.54278 23.5471 1.79494C21.7705 -0.084356 18.9557 -0.541703 16.6756 0.678471C14.3955 1.89864 13.2144 4.49426 13.7924 7.01494C9.19188 6.78396 4.9057 4.61082 2.00042 1.03627C0.484202 3.6515 1.25902 6.99464 3.77108 8.67628C2.8627 8.64708 1.97444 8.40108 1.18042 7.95894C1.18042 7.98294 1.18042 8.00695 1.18042 8.03095C1.18094 10.7551 3.10091 13.1018 5.77108 13.6416C4.9285 13.8708 4.04468 13.9046 3.18708 13.7403C3.93802 16.07 6.08515 17.666 8.53242 17.7136C6.50552 19.3044 4.00238 20.1672 1.42575 20.163C0.969042 20.1636 0.512695 20.1374 0.059082 20.0843C2.6756 21.7656 5.72091 22.658 8.83108 22.655C13.1581 22.6847 17.3164 20.9788 20.376 17.919C23.4356 14.8591 25.1412 10.7006 25.1111 6.3736C25.1111 6.1256 25.1053 5.87894 25.0937 5.6336C26.2144 4.82374 27.1815 3.82047 27.9497 2.67094C26.9057 3.13368 25.7984 3.4375 24.6644 3.57227Z" fill="white" fill-opacity="0.8"/>
</svg>
