<svg width="144" height="96" viewBox="0 0 144 96" fill="none" xmlns="http://www.w3.org/2000/svg">
<circle cx="48" cy="48" r="48" fill="#D9FFA8" fill-opacity="0.2"/>
<rect x="48" width="96" height="96" rx="48" fill="#D3FFF0"/>
<path d="M78 49.5C78 39.6 86.1 31.5 96 31.5C105.9 31.5 114 39.6 114 49.5" stroke="#01B075" stroke-width="4" stroke-miterlimit="10" stroke-linecap="round" stroke-linejoin="round"/>
<path d="M79.5 48H76.5V51H79.5V48Z" stroke="#01B075" stroke-width="4" stroke-miterlimit="10" stroke-linecap="round" stroke-linejoin="round"/>
<path d="M115.5 48H112.5V51H115.5V48Z" stroke="#01B075" stroke-width="4" stroke-miterlimit="10" stroke-linecap="round" stroke-linejoin="round"/>
<path d="M97.5 30H94.5V33H97.5V30Z" stroke="#01B075" stroke-width="4" stroke-miterlimit="10" stroke-linecap="round" stroke-linejoin="round"/>
<path d="M78 33C78.8284 33 79.5 32.3284 79.5 31.5C79.5 30.6716 78.8284 30 78 30C77.1716 30 76.5 30.6716 76.5 31.5C76.5 32.3284 77.1716 33 78 33Z" stroke="#01B075" stroke-width="4" stroke-miterlimit="10" stroke-linecap="round" stroke-linejoin="round"/>
<path d="M114 33C114.828 33 115.5 32.3284 115.5 31.5C115.5 30.6716 114.828 30 114 30C113.172 30 112.5 30.6716 112.5 31.5C112.5 32.3284 113.172 33 114 33Z" stroke="#01B075" stroke-width="4" stroke-miterlimit="10" stroke-linecap="round" stroke-linejoin="round"/>
<path d="M78 31.5H114" stroke="#01B075" stroke-width="4" stroke-miterlimit="10" stroke-linecap="round" stroke-linejoin="round"/>
<path d="M96 39L87 52.8C89.4 55.5 91.2 58.95 92.1 63H96H99.9C100.8 58.95 102.6 55.35 105 52.8L96 39Z" stroke="#01B075" stroke-width="4" stroke-miterlimit="10" stroke-linecap="round" stroke-linejoin="round"/>
<path d="M96 49.5V39.45" stroke="#01B075" stroke-width="4" stroke-miterlimit="10" stroke-linecap="round" stroke-linejoin="round"/>
<path d="M96 55.5C97.6569 55.5 99 54.1569 99 52.5C99 50.8431 97.6569 49.5 96 49.5C94.3431 49.5 93 50.8431 93 52.5C93 54.1569 94.3431 55.5 96 55.5Z" stroke="#01B075" stroke-width="4" stroke-miterlimit="10" stroke-linecap="round" stroke-linejoin="round"/>
<path d="M100.5 63H91.5V67.5H100.5V63Z" stroke="#01B075" stroke-width="4" stroke-miterlimit="10" stroke-linecap="round" stroke-linejoin="round"/>
</svg>
