<svg width="144" height="96" viewBox="0 0 144 96" fill="none" xmlns="http://www.w3.org/2000/svg">
<circle cx="48" cy="48" r="48" fill="#BFA8FF" fill-opacity="0.2"/>
<rect x="48" width="96" height="96" rx="48" fill="#E5D2FF"/>
<path d="M76.5 40.5H115.5" stroke="#864BD9" stroke-width="4" stroke-miterlimit="10" stroke-linecap="round" stroke-linejoin="round"/>
<path d="M82.5 37.5C82.05 37.5 81.75 37.35 81.45 37.05C81.15 36.75 81 36.45 81 36C81 35.55 81.15 35.25 81.45 34.95L81.6 34.8C81.75 34.8 81.75 34.65 81.9 34.65C82.05 34.5 82.05 34.5 82.2 34.5C82.35 34.5 82.65 34.5 82.8 34.5C82.95 34.5 82.95 34.5 83.1 34.65C83.25 34.65 83.25 34.8 83.4 34.8L83.55 34.95C83.7 35.1 83.85 35.25 83.85 35.4C84 35.55 84 35.85 84 36C84 36.15 84 36.45 83.85 36.6C83.85 36.75 83.7 36.9 83.55 37.05C83.25 37.35 82.95 37.5 82.5 37.5Z" fill="#864BD9"/>
<path d="M87 37.5C86.55 37.5 86.25 37.35 85.95 37.05C85.65 36.75 85.5 36.45 85.5 36C85.5 35.85 85.5 35.55 85.65 35.4C85.8 35.25 85.8 35.1 85.95 34.95C86.1 34.8 86.25 34.65 86.4 34.65C87 34.35 87.6 34.5 88.05 34.95C88.2 35.1 88.35 35.25 88.35 35.4C88.5 35.55 88.5 35.85 88.5 36C88.5 36.45 88.35 36.75 88.05 37.05C87.75 37.35 87.45 37.5 87 37.5Z" fill="#864BD9"/>
<path d="M91.5 37.5C91.35 37.5 91.05 37.5 90.9 37.35C90.75 37.2 90.6 37.2 90.45 37.05C90.3 36.9 90.15 36.75 90.15 36.6C90 36.45 90 36.15 90 36C90 35.85 90 35.55 90.15 35.4C90.3 35.25 90.3 35.1 90.45 34.95C91.05 34.35 91.95 34.35 92.55 34.95C92.7 35.1 92.85 35.25 92.85 35.4C93 35.55 93 35.85 93 36C93 36.15 93 36.45 92.85 36.6C92.7 36.75 92.7 36.9 92.55 37.05C92.25 37.35 91.95 37.5 91.5 37.5Z" fill="#864BD9"/>
<path d="M112.5 31.5H79.5C77.85 31.5 76.5 32.85 76.5 34.5V61.5C76.5 63.15 77.85 64.5 79.5 64.5H112.5C114.15 64.5 115.5 63.15 115.5 61.5V34.5C115.5 32.85 114.15 31.5 112.5 31.5Z" stroke="#864BD9" stroke-width="4" stroke-miterlimit="10" stroke-linecap="round" stroke-linejoin="round"/>
<path d="M88.5 48L84 52.5L88.5 57" stroke="#864BD9" stroke-width="4" stroke-miterlimit="10" stroke-linecap="round" stroke-linejoin="round"/>
<path d="M103.5 48L108 52.5L103.5 57" stroke="#864BD9" stroke-width="4" stroke-miterlimit="10" stroke-linecap="round" stroke-linejoin="round"/>
<path d="M99 46.5L93 58.5" stroke="#864BD9" stroke-width="4" stroke-miterlimit="10" stroke-linecap="round" stroke-linejoin="round"/>
</svg>
